<?xml version="1.0" encoding="utf-8"?>
<!-- Generator: Adobe Illustrator 18.0.0, SVG Export Plug-In . SVG Version: 6.00 Build 0)  -->
<!DOCTYPE svg PUBLIC "-//W3C//DTD SVG 1.1//EN" "http://www.w3.org/Graphics/SVG/1.1/DTD/svg11.dtd">
<svg version="1.1" id="Layer_1" xmlns="http://www.w3.org/2000/svg" xmlns:xlink="http://www.w3.org/1999/xlink" x="0px" y="0px"
	 viewBox="0 0 300 180" enable-background="new 0 0 300 180" xml:space="preserve">
<g>
	<path fill="#FFFFFF" d="M142.9,75.7H127V17.4h15.9c14.4,0,24.3,8.3,24.3,29.2C167.2,67.4,157.2,75.7,142.9,75.7z M159.9,46.6
		c0-14.4-5.1-23.2-17-23.2H134v46.3h8.9C154.8,69.7,159.9,61.1,159.9,46.6z"/>
	<path fill="#FFFFFF" d="M195.2,76.8c-11.2,0-19.3-7.4-19.3-20.6V17.4h7.1v39c0,9.5,5.9,14.4,12.3,14.4c5.9,0,12.2-4.7,12.2-14.4
		v-39h7.1v38.7C214.5,69.4,206.2,76.8,195.2,76.8z"/>
	<path fill="#FFFFFF" d="M232.5,75.7h-7.1V17.4h7.1v27.7l18-27.7h8.3L239,46.8l22.2,29h-8.9l-19.8-26.1L232.5,75.7L232.5,75.7z"/>
	<path fill="#FFFFFF" d="M268.4,17.4h30.9v6h-23.9v19.4h20.1v5.8h-20.1v21.1h23.8v6h-30.8L268.4,17.4L268.4,17.4z"/>
</g>
<g>
	<path fill="#FFFFFF" d="M138.7,102v0.2c2.6,1,4.3,3.6,4.3,6.9c0,5.6-3.7,8.4-8.1,8.4h-7.9V87.9h7.3c4.3,0,7.5,2,7.5,6.9
		C141.7,97.8,140.3,100,138.7,102z M136.9,101.6c1.6-2,2.6-4.1,2.6-6.5c0-3.6-2-5.3-5.7-5.3H129v11.9H136.9z M136.1,103.3H129v12.4
		h5.6c3.7,0,6.3-2.1,6.3-6.7C140.8,105.6,138.6,103.3,136.1,103.3z"/>
	<path fill="#FFFFFF" d="M159,104.6l6,12.8h-2.2l-5.7-12.3h-6.3v12.3h-2V87.9h6.9c4.9,0,7.5,3.1,7.5,7.9
		C163,99.7,160.9,102.6,159,104.6z M150.7,103.4h7.1c1.9-2.1,3.1-4.7,3.1-7.4c0-3.4-1.6-6.3-5.2-6.3h-4.9V103.4z"/>
	<path fill="#FFFFFF" d="M169.3,117.5h-2.2l8.8-29.5h2.5l8.9,29.5h-2.2l-1.8-6h-12.4L169.3,117.5z M171.5,109.7h11.3l-5.7-19.5
		L171.5,109.7z"/>
	<path fill="#FFFFFF" d="M193.9,90.9v26.5h-2V87.9h2.7l14,26.7V87.9h2v29.5H208L193.9,90.9z"/>
	<path fill="#FFFFFF" d="M225.2,117.5H218V87.9h7.2c6.8,0,11.4,4.2,11.4,14.8C236.7,113.1,232,117.5,225.2,117.5z M234.5,102.7
		c0-8.2-2.8-13-9.3-13h-5.1v26h5.1C231.8,115.7,234.5,110.8,234.5,102.7z"/>
	<path fill="#FFFFFF" d="M250.7,115.7v1.8h-10.8v-1.8h4.3v-26h-4.3v-1.8h10.8v1.8h-4.5v26H250.7z"/>
	<path fill="#FFFFFF" d="M257.6,90.9v26.5h-2V87.9h2.7l14,26.7V87.9h2v29.5h-2.6L257.6,90.9z"/>
	<path fill="#FFFFFF" d="M300.4,105.8v10.1c-3,1.6-5.8,2.1-8.6,2.1c-7.8,0-11.6-6.3-11.6-15.5s5.2-15,12.7-15c2.2,0,4.8,0.4,6.4,1.1
		v2c-2.1-0.9-4.6-1.4-6.6-1.4c-5,0-10.4,4-10.4,13.3c0,10.2,4.8,13.8,9.9,13.8c2.4,0,4.4-0.5,6.2-1.5v-8.9
		C298.4,105.8,300.4,105.8,300.4,105.8z"/>
</g>
<g>
	<g>
		<g>
			<defs>
				<rect id="SVGID_1_" x="0" width="107.6" height="179.6"/>
			</defs>
			<clipPath id="SVGID_2_">
				<use xlink:href="#SVGID_1_"  overflow="visible"/>
			</clipPath>
			<polygon clip-path="url(#SVGID_2_)" fill="#EB0029" points="0,156.1 0,179.6 56.2,179.6 107.6,145.3 107.6,84.2 			"/>
		</g>
		<g>
			<defs>
				<rect id="SVGID_3_" x="0" width="107.6" height="179.6"/>
			</defs>
			<clipPath id="SVGID_4_">
				<use xlink:href="#SVGID_3_"  overflow="visible"/>
			</clipPath>
			<polygon clip-path="url(#SVGID_4_)" fill="#9F1B96" points="0,97.4 0,157.3 107.6,85.4 107.6,25.5 			"/>
		</g>
		<g>
			<defs>
				<rect id="SVGID_5_" x="0" width="107.6" height="179.6"/>
			</defs>
			<clipPath id="SVGID_6_">
				<use xlink:href="#SVGID_5_"  overflow="visible"/>
			</clipPath>
			<polygon clip-path="url(#SVGID_6_)" fill="#0080BB" points="57.9,0 0,38.7 0,98.6 107.6,26.6 107.6,0 			"/>
		</g>
		<g>
			<defs>
				<rect id="SVGID_7_" x="0" width="107.6" height="179.6"/>
			</defs>
			<clipPath id="SVGID_8_">
				<use xlink:href="#SVGID_7_"  overflow="visible"/>
			</clipPath>
			<g clip-path="url(#SVGID_8_)">
				<g>
					<defs>
						<rect id="SVGID_9_" x="0" width="107.6" height="179.6"/>
					</defs>
					<defs>
						<rect id="SVGID_10_" x="0" width="107.6" height="179.6"/>
					</defs>
					<clipPath id="SVGID_11_">
						<use xlink:href="#SVGID_9_"  overflow="visible"/>
					</clipPath>
					<clipPath id="SVGID_12_" clip-path="url(#SVGID_11_)">
						<use xlink:href="#SVGID_10_"  overflow="visible"/>
					</clipPath>
					<path clip-path="url(#SVGID_12_)" fill="#FFFFFF" d="M107.7,79.1v-0.5c-2.3-2.8-6.3-3.1-8.2-2.8c0.7,2.6,1.3,6.6-2.6,6.7
						c-3.9,0.2-12-2.6-14.5-3.3c1-1.2,2.6-3.6,2.5-5.4c-4.1,2.3-7.9,1.3-10.4-3.3c0.6,1,4.3,2.3,4.3,2.3s-0.4-2-1.4-4.5
						c2,0.6,2.8,0.5,5.2,2.1c-0.3-2.1-2.8-4.2-3.6-6.1c1.2-0.5,8.9-9.2,11.3-8.7c1.3,2-1.1,2.9-1.5,4.3c1.2,1.2,6.4,2.6,8.4,0.3
						c-1.6,1.3-5.8-1.8-4.9-2.3c0.8-0.5,1.6-2.6,1.6-3.7c3.3,0.1,4.8-4.8,4.8-4.8c1,0,1,0,4.9,2c-0.7-2-5.6-5.2-5.6-5.2
						c0.2,2.2-3.4,4-3.4,4c1.2-1.2,0.2-5.4,0.2-5.4s2-0.8,6.1-0.5c-2.3-1.8-9.7-1.3-9-0.2c0.7,1.2,1,4.9,0,5.1c0.2-2.3-3-5.3-3-5.3
						c-0.3-1.2,0.9-3.1,3-3.8c-2.1-0.2-8.2,5.1-6.6,6.1c3.5,1.5,5.4,3.6,3.1,5.9c-2.3,2.3-11.2,8.3-13.2,8.7c-1-1.2,1-3.1-4.3-7.4
						c1.1,1.4,0.4,4-0.6,4.8c-0.4-0.3-0.8-0.5-1.3-0.7c-5.8-2.4-8-0.8-10.5-2.5c-0.5-0.4-1.1-0.9-1.7-1.7c0.9,0.2,2.3,0.3,3.7,0.3
						c2.5,0,5.2-0.5,5.7-2.3c-1.1,0.2-2.1,0.4-2.9,0.4c-2.4,0.1-3.7-0.5-5.5-2.1C56.4,48,68,38.3,69.5,46c0,0,3.9-8.6-1.7-8.9
						c-2.7-0.1-6.3,2.1-6.3,2.1s-0.2-4.3-7.5-1.7c-0.6-2.3-2.8-4.9-5.8-5.8c3.9,3.9,0.1,4.7,0.6,7.4c-1.5-2.9-6.3-5.5-11.2-4.4
						c7.6,2.3,2,6.1,6.2,9c-4.1,4.1-4.9,11.2-3,16.9c0.5-3.3,3-5.3,3-5.3s-1.8,4.7-0.7,9.9c0.6,2.9,2.1,5.8,5.2,8.2
						c2.7,0,10.5-5.4,18.5-0.9c-6.1-2.1-12.5,1.3-14.5,2.5c-3.9,3.3-8,2.6-12.2-7.9c-1.6-4-3.2-9.5-4.7-16.7c-1-4.1-4.8-7-13.7-9.9
						c0,0-7.7-2.2-14.9-6.6l-4.5,3.1c8.2,10.1,21.5,15.2,21.5,15.2S9,49.9-0.1,41.7l0,0v4.9h0c7.6,11.8,22.8,15.5,22.8,15.5
						s-11.3,1.1-22.8-8.7l0,0l0,0.8h0C6.2,66.9,22.2,72.7,23.7,73c0.1,0,0.1,0,0.1,0c0,0-0.1,0-0.1,0c-1.3,0-13.9,1.3-19.6-4.1
						c2.6,6.5,10.6,9.9,17.1,11.1c3.6,0.7,4.4,0.9,5.9,0.4c-4.5,3.3-7.2,3.2-10.6,2.8c-2.4-0.3-4-0.9-4-0.9s0.7,1,2.2,2.1
						c3.1,2.4,9.7,5.6,20.3,1.8c-1.8,3.9-7.4,6.2-10.5,6.4c7.7,3.6,17.9-1.6,19.5-3.7c-2.4,5.9-6.7,7.2-6.5,7.3
						c0.2,0.2,7.9,0.8,14.8-7.2c-0.3,2.6-1.3,4.7-2.8,5.6c4.9-1.3,8.9-4.4,9.5-6.6c0.3,2.1-1,3.5-1,3.5s4.4-0.9,8.1-4
						c-2.6,4.6-14,8.9-17.8,8.8c-8.3,3.7-9.8,13.6-15,21.1c-5.3,5.9-11.6,4.1-7.2-1.1c-3.8,1.5-3.3,3.8-3,4.8
						c-5.5-4.6,4.8-12.8,6.4-15.8c1.8-3.3,0.4-6.3-2.3-8c-5.7-3.8-9.8,0.2-14.4,3.6c-3.9,3-11.3,3.4-8.2-3.2
						c-8.2,8.2,7.7,18.9,15.1,4.3c-0.9,4.6-3,6.1-3.9,6.9c5.7,0.1,6.9-8.8,10.3-5.9c0.5,0.4,0.5,1.4-0.4,2.6
						c-2,2.8-6.6,7.1-6.8,11.4c-0.3,5.7,3.6,10.4,9.8,8.5c5.4-1.7,10.5-8.8,12.2-13.1c1.3,5.8-4.9,21.7-11.5,16.3
						c-0.4,1.4-0.1,3.3,0.5,5.1c1,2.7,2.7,5.3,3.6,6.1c-2.1-0.1-5.3-2.9-6.2-4.3c-0.1-0.2-0.2-0.3-0.2-0.4c0,0.2,0.1,0.3,0.1,0.5
						c1.7,6.4,6.4,10.3,8.9,11.8c-1.8-0.1-3.6-0.6-5.1-1.7c3.5,4.7,9.3,10.6,11.5,11.1c1,1.2,1.6,3.4,2.7,4.4h4.2
						c5.5,0,6.1,3.4,6.2,3.7c0.4-3.7-2.8-6.1-2.8-6.1s5.6,0.2,7.9,6.2c-1.2-7.2-4.6-9.2-5.8-9.4c3.3,0.2,4.6,1.3,5.9,2.8
						c-1.5-4.6-6.6-6.4-8.2-6.4s1,4.1-3.1,2.6s-5.9-3.9-7.4-9.9c-1.5-5.9,0.2-9.7,3.9-13.2c3-2.7,9.8-7.7,11.4-17.5
						c9.3-1.3,12.6,13.9,2.1,14.6c4.5,3,14.2,1.4,19.3-2.3c-3.1,4.3-7.6,6.4-7.6,6.4s7.1-1.6,13-7.7c-1,2.4-1.7,2.8-2.6,4.3
						c0,0,9.5-5.1,10.7-7.7c1.1-2.6,3.1,3.3,7.9-6.7c0.9-1.7,5.6-1,5.6-1s-3-2.6-7.4-0.3c1.8-3,5.4-2.5,7.4-2.3
						c-4.5-3-9.2-0.8-9.9,0.7c-1-2.8,5-6.3,5.9-6.5c-7.4-0.2-10.7,6-11,7.3c-0.3,1.3,3,3.1-0.3,4.6c-3.3,1.5-15.1,2.3-17.6,1.6
						c5.6-3.6,7.1-12.4,4.5-17.7c-1.4-2.8-3.9-4.6-7.6-4c2.8-2.9,4.8-5.8,5-7.9c0-0.8-1.5-2-2.6-2.8c0,0,9,0.2,6.6,5.4
						c1.5-1.2,4.6-4.8,2.8-6.9c2.8-0.5,10,1.2,12,1.5c2,0.3-1.8,2.3-3.5,1.8c-0.8-0.2-0.7,1.8,0.7,3.7c1.4,1.9,4,3.8,8.1,3.5
						c-6.1-1.8-6.1-4.2-5.8-5.1c0-0.1,0-0.1,0.1-0.2c0.1-0.1,0.3-0.2,0.5-0.2c1.3-0.3,4.5-0.2,4.2-2.5c1.2,2.1,3.9,4.8,7.2,3.3
						s-1.3,5.1-2.1,5.8c1.8-1.2,3.7-3,4.6-4.7v-3.8c-0.1-0.1-0.2-0.2-0.3-0.3c-2,0.7-3.9,1-6.1-1.2c1.8,0.1,5,0.2,6.4-0.7v-3.4
						c-0.5-0.4-0.9-0.6-1.3-0.8c0,0-0.6,0.5-1.4,0.8c-0.9,0.4-2.2,0.7-3.4,0.2c1.2-1.2,2.1-2.1,1.5-3.9
						C102.6,77.3,106,78,107.7,79.1"/>
					<path clip-path="url(#SVGID_12_)" fill="#FFFFFF" d="M70.3,47.2c-5.1-2.5-8.9,2-8.9,2c2.5-1.8,4.9-1.3,6.9-0.6
						c1.1,0.4,2.2,1,3.1,1.2c4.2,1.3,8.5-2.4,6.8-7.8c-0.1-0.4-0.3-0.7-0.4-1.1c0.1,0.4,0.1,0.9,0,1.4
						C77.3,45.4,74.6,48.8,70.3,47.2C70.3,47.2,70.3,47.2,70.3,47.2"/>
				</g>
			</g>
		</g>
	</g>
</g>
</svg>
