<?xml version="1.0" encoding="UTF-8" standalone="no"?><!DOCTYPE svg PUBLIC "-//W3C//DTD SVG 1.1//EN" "http://www.w3.org/Graphics/SVG/1.1/DTD/svg11.dtd"><svg width="100%" height="100%" viewBox="0 0 122 73" version="1.1" xmlns="http://www.w3.org/2000/svg" xmlns:xlink="http://www.w3.org/1999/xlink" xml:space="preserve" style="fill-rule:evenodd;clip-rule:evenodd;stroke-linejoin:round;stroke-miterlimit:1.41421;"><rect id="infinity" x="0" y="0" width="121.68" height="72.96" style="fill:none;"/><clipPath id="_clip1"><rect id="infinity1" x="0" y="0" width="121.68" height="72.96"/></clipPath><g clip-path="url(#_clip1)"><g><path d="M36.683,58.377c-0.367,0 -0.55,-0.183 -0.55,-0.55c0,-0.386 0.183,-0.578 0.55,-0.578l9.547,0l0,-39.231l-9.547,0c-0.367,0 -0.55,-0.193 -0.55,-0.578c0,-0.367 0.183,-0.55 0.55,-0.55l20.193,0c0.367,0 0.55,0.183 0.55,0.55c0,0.385 -0.183,0.578 -0.55,0.578l-9.518,0l0,39.231l9.518,0c0.367,0 0.55,0.192 0.55,0.578c0,0.367 -0.183,0.55 -0.55,0.55l-20.193,0Z" style="fill-rule:nonzero;"/><path d="M62.171,57.827l0,-40.387c0,-0.367 0.183,-0.55 0.55,-0.55c0.385,0 0.578,0.183 0.578,0.55l0,40.387c0,0.367 -0.193,0.55 -0.578,0.55c-0.367,0 -0.55,-0.183 -0.55,-0.55Z" style="fill-rule:nonzero;"/><path d="M78.661,57.827l0,-39.028l-9.142,9.143c-0.27,0.27 -0.53,0.27 -0.781,0c-0.27,-0.27 -0.27,-0.531 0,-0.781l10.097,-10.097c0.174,-0.193 0.376,-0.241 0.608,-0.145c0.231,0.096 0.347,0.27 0.347,0.521l0,40.387c0,0.367 -0.193,0.55 -0.579,0.55c-0.366,0 -0.55,-0.183 -0.55,-0.55Z" style="fill-rule:nonzero;"/><path d="M84.997,47.73l0,-30.29c0,-0.367 0.193,-0.55 0.579,-0.55c0.366,0 0.55,0.183 0.55,0.55l0,30.29c0,0.367 -0.184,0.55 -0.55,0.55c-0.386,0 -0.579,-0.183 -0.579,-0.55Zm0.579,10.647c-0.502,0 -0.752,-0.251 -0.752,-0.752c0,-0.502 0.25,-0.753 0.752,-0.753c0.501,0 0.752,0.251 0.752,0.753c0,0.501 -0.251,0.752 -0.752,0.752Z" style="fill-rule:nonzero;"/></g></g></svg>