<?xml version="1.0" encoding="UTF-8" standalone="no"?><!DOCTYPE svg PUBLIC "-//W3C//DTD SVG 1.1//EN" "http://www.w3.org/Graphics/SVG/1.1/DTD/svg11.dtd"><svg width="100%" height="100%" viewBox="0 0 122 73" version="1.1" xmlns="http://www.w3.org/2000/svg" xmlns:xlink="http://www.w3.org/1999/xlink" xml:space="preserve" style="fill-rule:evenodd;clip-rule:evenodd;stroke-linejoin:round;stroke-miterlimit:1.41421;"><rect id="jaapokki" x="0" y="0" width="121.68" height="72.96" style="fill:none;"/><clipPath id="_clip1"><rect id="jaapokki1" x="0" y="0" width="121.68" height="72.96"/></clipPath><g clip-path="url(#_clip1)"><g><path d="M43.221,25.476l0,-8.295l-17.123,0l0,8.295l4.443,0l0,24.945l-4.443,0l0,8.295l17.123,0l0,-8.295l-4.385,0l0,-24.945l4.385,0Z" style="fill-rule:nonzero;"/><rect x="49.442" y="14.633" width="7.584" height="44.082" style="fill-rule:nonzero;"/><path d="M77.527,50.361l0,-33.121l-14.28,0l0,8.355l5.925,0l0,24.766l-5.925,0l0,8.355l19.553,0l0,-8.355l-5.273,0Z" style="fill-rule:nonzero;"/><path d="M89.792,46.984l0,-32.351l7.584,0l0,32.351l-7.584,0Zm-0.178,11.732l0,-7.762l7.762,0l0,7.762l-7.762,0Z" style="fill-rule:nonzero;"/></g></g></svg>