<?xml version="1.0" encoding="utf-8"?>
<!-- Generator: Adobe Illustrator 18.1.1, SVG Export Plug-In . SVG Version: 6.00 Build 0)  -->
<svg version="1.1" id="Layer_1" xmlns="http://www.w3.org/2000/svg" xmlns:xlink="http://www.w3.org/1999/xlink" x="0px" y="0px"
	 viewBox="0 189 2560 1440" enable-background="new 0 189 2560 1440" xml:space="preserve">
<rect y="189" width="2560" height="1440"/>
<g enable-background="new    ">
	<path fill="#FFFFFF" d="M507.4,532.5V448h39.4v83.5c0,13.4,9.1,19.5,19.1,19.5s19.1-6.1,19.1-19.5V448h39.4v84.5
		c0,30.9-24.2,49.8-58.5,49.8C531.6,582.3,507.4,563.4,507.4,532.5z"/>
	<path fill="#FFFFFF" d="M682.7,579.9h-37.4V439.3l29.9-3h7.5v54.8c7.3-5.1,16.4-9.1,27-9.1c16.5,0,32.9,8.7,32.9,36.1v61.9h-37.4
		v-55.6c0-7.5-3.2-10.6-8.7-10.6c-4.1,0-9.1,2.2-13.8,5.3V579.9z"/>
</g>
<g enable-background="new    ">
	<path fill="#FFFFFF" d="M761.2,555.4h28.9c1,4.2,1.4,6.9,1.4,11.8c0,11.9-8,26.9-16.2,37.6l-13.6-7.5c5-7.8,7.6-11.9,9.3-17.4
		c-3.3-0.4-7-1.1-9.8-1.3V555.4z"/>
</g>
<g enable-background="new    ">
	<path fill="#FFFFFF" d="M985.3,511.4l2.2,20.3h2.2l2.2-20.7l14-63h40L1011,581.1h-43.7l-17.1-61.3l-1.8-15h-2.4l-2.2,15L927,581.1
		h-43.3L848.2,448h42l14.2,63l2.2,20.7h2.2l1.6-20.3l16.2-63.4h42.4L985.3,511.4z"/>
	<path fill="#FFFFFF" d="M1096.1,579.9h-37.4V439.3l29.9-3h7.5v54.8c7.3-5.1,16.4-9.1,27-9.1c16.5,0,32.9,8.7,32.9,36.1v61.9h-37.4
		v-55.6c0-7.5-3.2-10.6-8.7-10.6c-4.1,0-9.1,2.2-13.8,5.3V579.9z"/>
	<path fill="#FFFFFF" d="M1259.6,579.4c-8.5,0.8-23.8,1.6-32.3,2.6h-2v-10.4h-0.8c-6.5,5.1-14.4,10.4-28.6,10.2
		c-12.8-0.2-26.2-9.1-26.2-29c0-23.4,20.3-27.2,40.6-29.9l11.8-1.6v-2c0-5.1-0.6-8.5-9.3-8.5c-6.7,0-21.7,2.2-34.1,6.3l-2.6-28.6
		c12.6-4.3,27-6.5,39.8-6.5c28.6,0,43.5,11.4,43.5,40.2V579.4z M1222.1,541.9l-7.3,1c-3.7,0.6-7.1,2-7.1,6.1c0,4.5,2.4,6.5,5.5,6.5
		c2.8,0,6.1-1,8.9-2.8V541.9z"/>
	<path fill="#FFFFFF" d="M1323.6,541.9c0,8.3,4.1,10.6,9.7,10.6c5.3,0,12-2.2,16.5-3.5l1.8,28.4c-9.3,2.8-22.1,4.9-33.5,4.9
		c-16.4,0-31.9-5.1-31.9-28.6v-41.4h-13.8v-23.8l13.8-3.3v-23.4l31.1-6.7h6.3v29.4h30.3v28h-30.3V541.9z"/>
	<path fill="#FFFFFF" d="M1416.2,437.5h40.6V470l-40.6,3.5V437.5z M1455.2,579.9h-37.4v-94.4l30.1-2.6h7.3V579.9z"/>
	<path fill="#FFFFFF" d="M1548.6,485.6v30.7h-2.4c-11.4-3.5-22.3-4.5-27.4-4.5c-5.5,0-9.3,1.4-9.3,3.9c0,9.5,44.3-1.4,44.3,34.3
		c0,26.2-26.2,32.3-51.6,32.3c-10,0-19.9-1.2-28.4-3v-30.1h1.6c9.7,2,21.9,3.3,28.2,3.3c7.9,0,12.2,0,12.2-2.8
		c0-9.3-44.1,1.6-44.1-36.1c0-17.3,15-31.7,41.8-31.7C1527.3,482,1537.9,482.8,1548.6,485.6z"/>
	<path fill="#FFFFFF" d="M1662.4,541.9c0,8.3,4.1,10.6,9.7,10.6c5.3,0,12-2.2,16.5-3.5l1.8,28.4c-9.3,2.8-22.1,4.9-33.5,4.9
		c-16.4,0-31.9-5.1-31.9-28.6v-41.4h-13.8v-23.8l13.8-3.3v-23.4l31.1-6.7h6.3v29.4h30.3v28h-30.3V541.9z"/>
	<path fill="#FFFFFF" d="M1744.8,579.9h-37.4V439.3l29.9-3h7.5v54.8c7.3-5.1,16.4-9.1,27-9.1c16.5,0,32.9,8.7,32.9,36.1v61.9h-37.4
		v-55.6c0-7.5-3.2-10.6-8.7-10.6c-4.1,0-9.1,2.2-13.8,5.3V579.9z"/>
	<path fill="#FFFFFF" d="M1823.6,437.5h40.6V470l-40.6,3.5V437.5z M1862.6,579.9h-37.4v-94.4l30.1-2.6h7.3V579.9z"/>
	<path fill="#FFFFFF" d="M1956,485.6v30.7h-2.4c-11.4-3.5-22.3-4.5-27.4-4.5c-5.5,0-9.3,1.4-9.3,3.9c0,9.5,44.3-1.4,44.3,34.3
		c0,26.2-26.2,32.3-51.6,32.3c-10,0-19.9-1.2-28.4-3v-30.1h1.6c9.7,2,21.9,3.3,28.2,3.3c7.9,0,12.2,0,12.2-2.8
		c0-9.3-44.1,1.6-44.1-36.1c0-17.3,15-31.7,41.8-31.7C1934.7,482,1945.3,482.8,1956,485.6z"/>
	<path fill="#FFFFFF" d="M1989.3,541.1c-1-3.3-1.6-7.7-1.6-10.6c0-26.2,33.9-33.3,33.9-44.5c0-7.5-6.7-9.9-15.4-9.9
		c-11.4,0-26,4.3-31.9,6.7l-2.8-29c12.8-4.7,27.2-8.3,41.8-8.3c31.7,0,46.7,18.1,46.7,33.7c0,34.9-35.7,33.1-35.7,56.5
		c0,3.5,0.2,9.1,2,13.6L1989.3,541.1z M1988.1,551.8l41.8,9.3v18.9h-41.8V551.8z"/>
</g>
<g>
	<path fill="#FFFFFF" d="M302.7,670v64.2H300V670h-20.3v-2.5h43.4l-0.2,2.5H302.7z"/>
	<path fill="#FFFFFF" d="M335.1,734.1h-2.5v-71.8l2.1-0.7c0.1,0,0.3,0,0.4,0v33.5c7.6-5.2,13.7-7.9,19.4-7.9c7,0,13.1,4.3,13.1,14.4
		v32.4h-2.5v-31.5c0-8.9-4.2-12.9-10.7-12.9c-4.5,0-10.9,2.3-19.3,8.2V734.1z"/>
	<path fill="#FFFFFF" d="M417,733c-4.5,1.5-9.1,2.3-12.8,2.3c-14.8,0-22.5-8.7-22.5-24.4c0-14.8,8.6-23.7,20-23.7
		c11.5,0,16.9,7.9,16.9,17.7c0,1.6-0.2,4.1-0.5,5.8h-33.7c0,0.6,0,0.6,0,1.4c0,15.9,9.9,20.8,19.8,20.8c4.5,0,8.7-0.9,12.8-2.6V733z
		 M384.5,708.5h31.2c0.1-0.8,0.2-2.3,0.2-3.1c0-9.1-4.4-15.7-14.3-15.7C393.3,689.7,385.5,695.6,384.5,708.5z"/>
	<path fill="#FFFFFF" d="M458.1,760.2h-0.4v-71.7l2.2-0.5h0.3v7.7c5.7-5,11.3-8.4,18.6-8.4c10.2,0,17.6,6.2,17.6,23
		c0,15.8-7.5,25.1-21.2,25.1c-4.6,0-10.6-1.5-15-3v27.6L458.1,760.2z M493.7,710.3c0-13.5-4.9-20.6-15.1-20.6
		c-6.7,0-13.1,4.3-18.4,9.2v31c6.3,2,10.6,3.1,14.9,3.1C488.9,732.9,493.7,722.3,493.7,710.3z"/>
	<path fill="#FFFFFF" d="M543.4,734.4H543v-7c-7.6,5.2-13.7,7.9-19.4,7.9c-7,0-13.1-4.4-13.1-14.5v-32.2l2.2-0.4h0.3v31.7
		c0,8.9,4.2,13,10.7,13c4.5,0,10.9-2.3,19.3-8.2v-36.2l2.3-0.4h0.2v46L543.4,734.4z"/>
	<path fill="#FFFFFF" d="M564.9,696.9c5.3-7.8,11.1-9.2,16.8-9v2.6c-5.6-0.3-11,1.2-16.8,10v33.5h-2.5v-45.7l2.1-0.5h0.4V696.9z"/>
	<path fill="#FFFFFF" d="M592.4,760.2H592v-71.7l2.2-0.5h0.3v7.7c5.7-5,11.3-8.4,18.6-8.4c10.2,0,17.6,6.2,17.6,23
		c0,15.8-7.5,25.1-21.2,25.1c-4.6,0-10.6-1.5-15-3v27.6L592.4,760.2z M628,710.3c0-13.5-4.9-20.6-15.1-20.6
		c-6.7,0-13.1,4.3-18.4,9.2v31c6.3,2,10.6,3.1,14.9,3.1C623.3,732.9,628,722.3,628,710.3z"/>
	<path fill="#FFFFFF" d="M663.7,687.3c13.8,0,21.2,9.3,21.2,24c0,14.7-7.4,24-21.2,24c-13.7,0-21.1-9.3-21.1-24
		C642.6,696.5,649.9,687.3,663.7,687.3z M663.8,732.8c10.3,0,18.4-6.4,18.4-21.6c0-15.2-8.1-21.6-18.4-21.6
		c-10.4,0-18.5,6.4-18.5,21.6C645.2,726.5,653.3,732.8,663.8,732.8z"/>
	<path fill="#FFFFFF" d="M722,688.5l-0.4,2.5c-2.7-0.6-6.2-1.3-9.5-1.3c-6,0-12.9,1.3-12.9,9c0,12.4,25.4,9.9,25.4,23.4
		c0,9.8-8.3,13.3-17.9,13.3c-3.3,0-7-0.6-10.1-1.1l0.3-2.6c0,0,5.2,1.3,10.8,1.3c7.9,0,14.2-3.4,14.2-10.2
		c0-12.6-25.4-9.1-25.4-23.9c0-8,6.2-11.5,15.6-11.5C716,687.3,719.3,687.9,722,688.5z"/>
	<path fill="#FFFFFF" d="M770.6,733c-4.5,1.5-9.1,2.3-12.8,2.3c-14.8,0-22.5-8.7-22.5-24.4c0-14.8,8.6-23.7,20-23.7
		c11.5,0,16.9,7.9,16.9,17.7c0,1.6-0.2,4.1-0.5,5.8H738c0,0.6,0,0.6,0,1.4c0,15.9,9.9,20.8,19.8,20.8c4.5,0,8.7-0.9,12.8-2.6V733z
		 M738.1,708.5h31.2c0.1-0.8,0.2-2.3,0.2-3.1c0-9.1-4.4-15.7-14.3-15.7C746.9,689.7,739.1,695.6,738.1,708.5z"/>
	<path fill="#FFFFFF" d="M829.8,687.3c13.8,0,21.2,9.3,21.2,24c0,14.7-7.4,24-21.2,24c-13.7,0-21.1-9.3-21.1-24
		C808.7,696.5,816.1,687.3,829.8,687.3z M829.9,732.8c10.3,0,18.4-6.4,18.4-21.6c0-15.2-8.1-21.6-18.4-21.6
		c-10.4,0-18.5,6.4-18.5,21.6C811.4,726.5,819.5,732.8,829.9,732.8z"/>
	<path fill="#FFFFFF" d="M866.7,680.2c-0.4-13.6,8.2-19.2,16.9-19.2c4,0,6,0.5,7.9,0.9l-0.4,2.5c-2.3-0.6-4.5-1-7.5-1
		c-7.1,0-14.4,4.3-14.4,16v9h16.4v2.3h-16.4v43.5h-2.5v-43.5h-5.6V689l5.6-0.6V680.2z"/>
	<path fill="#FFFFFF" d="M924.8,726.6c0,6.2,3.5,6.4,6.9,6.4c1.7,0,4.2-0.5,5.9-1l0.3,2.3c-2.2,0.6-5.1,1.1-7.3,1.1
		c-3.8,0-8.3-1.1-8.3-8.7v-35.9h-6v-1.7l6-0.7v-13.5l2.4-0.4v13.9h15v2.4h-14.9V726.6z"/>
	<path fill="#FFFFFF" d="M952.3,734.1h-2.5v-71.8l2.1-0.7c0.1,0,0.3,0,0.4,0v33.5c7.6-5.2,13.7-7.9,19.4-7.9c7,0,13.1,4.3,13.1,14.4
		v32.4h-2.5v-31.5c0-8.9-4.2-12.9-10.7-12.9c-4.5,0-10.9,2.3-19.3,8.2V734.1z"/>
	<path fill="#FFFFFF" d="M1001.5,671.7V665h2.5v6.3L1001.5,671.7z M1003.6,688h0.3v46.2h-2.5v-45.7L1003.6,688z"/>
	<path fill="#FFFFFF" d="M1043.7,688.5l-0.4,2.5c-2.7-0.6-6.2-1.3-9.5-1.3c-6,0-12.9,1.3-12.9,9c0,12.4,25.4,9.9,25.4,23.4
		c0,9.8-8.3,13.3-17.9,13.3c-3.3,0-7-0.6-10.1-1.1l0.3-2.6c0,0,5.2,1.3,10.8,1.3c7.9,0,14.2-3.4,14.2-10.2
		c0-12.6-25.4-9.1-25.4-23.9c0-8,6.2-11.5,15.6-11.5C1037.8,687.3,1041.1,687.9,1043.7,688.5z"/>
	<path fill="#FFFFFF" d="M1095.2,735h-3l-12.4-46.7h2.8l11,43.3h0.3l12.2-43.3h3.4l12.2,43.3h0.3l11-43.3h2.8l-12.4,46.7h-3
		l-12.6-43.5L1095.2,735z"/>
	<path fill="#FFFFFF" d="M1180.8,733c-4.5,1.5-9.1,2.3-12.8,2.3c-14.8,0-22.5-8.7-22.5-24.4c0-14.8,8.6-23.7,20-23.7
		c11.5,0,16.9,7.9,16.9,17.7c0,1.6-0.2,4.1-0.5,5.8h-33.7c0,0.6,0,0.6,0,1.4c0,15.9,9.9,20.8,19.8,20.8c4.5,0,8.7-0.9,12.8-2.6V733z
		 M1148.2,708.5h31.2c0.1-0.8,0.2-2.3,0.2-3.1c0-9.1-4.4-15.7-14.3-15.7C1157.1,689.7,1149.2,695.6,1148.2,708.5z"/>
	<path fill="#FFFFFF" d="M1198.6,661.6h0.4v32c4.7-3.2,10.5-6.4,18-6.4c9.1,0,17.3,5.5,17.3,23c0,18.3-10.5,25.1-23,25.1
		c-5.4,0-10.6-1-14.8-2.3v-70L1198.6,661.6z M1216.5,689.7c-5.9,0-12.2,2.9-17.5,6.6v35c4.6,1.4,9,1.7,12.3,1.7
		c11.5,0,20.3-6.2,20.3-22.7C1231.6,696.6,1226.6,689.7,1216.5,689.7z"/>
	<path fill="#FFFFFF" d="M1271.5,688.5l-0.4,2.5c-2.7-0.6-6.2-1.3-9.5-1.3c-6,0-12.9,1.3-12.9,9c0,12.4,25.4,9.9,25.4,23.4
		c0,9.8-8.3,13.3-17.9,13.3c-3.3,0-7-0.6-10.1-1.1l0.3-2.6c0,0,5.2,1.3,10.8,1.3c7.9,0,14.2-3.4,14.2-10.2
		c0-12.6-25.4-9.1-25.4-23.9c0-8,6.2-11.5,15.6-11.5C1265.5,687.3,1268.8,687.9,1271.5,688.5z"/>
	<path fill="#FFFFFF" d="M1287.4,671.7V665h2.5v6.3L1287.4,671.7z M1289.6,688h0.3v46.2h-2.5v-45.7L1289.6,688z"/>
	<path fill="#FFFFFF" d="M1310.8,726.6c0,6.2,3.5,6.4,6.9,6.4c1.7,0,4.2-0.5,5.9-1l0.3,2.3c-2.2,0.6-5.1,1.1-7.3,1.1
		c-3.8,0-8.3-1.1-8.3-8.7v-35.9h-6v-1.7l6-0.7v-13.5l2.4-0.4v13.9h15v2.4h-14.9V726.6z"/>
	<path fill="#FFFFFF" d="M1368.4,733c-4.5,1.5-9.1,2.3-12.8,2.3c-14.8,0-22.5-8.7-22.5-24.4c0-14.8,8.6-23.7,20-23.7
		c11.5,0,16.9,7.9,16.9,17.7c0,1.6-0.2,4.1-0.5,5.8h-33.7c0,0.6,0,0.6,0,1.4c0,15.9,9.9,20.8,19.8,20.8c4.5,0,8.7-0.9,12.8-2.6V733z
		 M1335.9,708.5h31.2c0.1-0.8,0.2-2.3,0.2-3.1c0-9.1-4.4-15.7-14.3-15.7C1344.7,689.7,1336.9,695.6,1335.9,708.5z"/>
	<path fill="#FFFFFF" d="M1409.1,671.7V665h2.5v6.3L1409.1,671.7z M1411.3,688h0.3v46.2h-2.5v-45.7L1411.3,688z"/>
	<path fill="#FFFFFF" d="M1451.4,688.5l-0.4,2.5c-2.7-0.6-6.2-1.3-9.5-1.3c-6,0-12.9,1.3-12.9,9c0,12.4,25.4,9.9,25.4,23.4
		c0,9.8-8.3,13.3-17.9,13.3c-3.3,0-7-0.6-10.1-1.1l0.3-2.6c0,0,5.2,1.3,10.8,1.3c7.9,0,14.2-3.4,14.2-10.2
		c0-12.6-25.4-9.1-25.4-23.9c0-8,6.2-11.5,15.6-11.5C1445.4,687.3,1448.7,687.9,1451.4,688.5z"/>
	<path fill="#FFFFFF" d="M1496.1,726.6c0,6.2,3.5,6.4,6.9,6.4c1.7,0,4.2-0.5,5.9-1l0.3,2.3c-2.2,0.6-5.1,1.1-7.3,1.1
		c-3.8,0-8.3-1.1-8.3-8.7v-35.9h-6v-1.7l6-0.7v-13.5l2.4-0.4v13.9h15v2.4h-14.9V726.6z"/>
	<path fill="#FFFFFF" d="M1539.4,687.3c13.8,0,21.2,9.3,21.2,24c0,14.7-7.4,24-21.2,24c-13.7,0-21.1-9.3-21.1-24
		C1518.3,696.5,1525.7,687.3,1539.4,687.3z M1539.5,732.8c10.3,0,18.4-6.4,18.4-21.6c0-15.2-8.1-21.6-18.4-21.6
		c-10.4,0-18.5,6.4-18.5,21.6C1521,726.5,1529.1,732.8,1539.5,732.8z"/>
	<path fill="#FFFFFF" d="M1600.2,760.2h-0.4v-71.7l2.2-0.5h0.3v7.7c5.7-5,11.3-8.4,18.6-8.4c10.2,0,17.6,6.2,17.6,23
		c0,15.8-7.5,25.1-21.2,25.1c-4.6,0-10.6-1.5-15-3v27.6L1600.2,760.2z M1635.9,710.3c0-13.5-4.9-20.6-15.1-20.6
		c-6.7,0-13.1,4.3-18.4,9.2v31c6.3,2,10.6,3.1,14.9,3.1C1631.1,732.9,1635.9,722.3,1635.9,710.3z"/>
	<path fill="#FFFFFF" d="M1655.5,696.9c5.3-7.8,11.1-9.2,16.8-9v2.6c-5.6-0.3-11,1.2-16.8,10v33.5h-2.5v-45.7l2.1-0.5h0.4V696.9z"/>
	<path fill="#FFFFFF" d="M1700.3,687.3c13.8,0,21.2,9.3,21.2,24c0,14.7-7.4,24-21.2,24c-13.7,0-21.1-9.3-21.1-24
		C1679.2,696.5,1686.6,687.3,1700.3,687.3z M1700.4,732.8c10.3,0,18.4-6.4,18.4-21.6c0-15.2-8.1-21.6-18.4-21.6
		c-10.4,0-18.5,6.4-18.5,21.6C1681.9,726.5,1690,732.8,1700.4,732.8z"/>
	<path fill="#FFFFFF" d="M1738.3,734.1h-2.5v-45.7l2.1-0.5h0.4v7.4c7.7-5.7,13.1-8.1,18.7-8.1c5.2,0,10,2.4,11.7,8.4
		c7.7-5.5,13.8-8.4,19.3-8.4c7.2,0,12.5,4.3,12.5,14.4v32.4h-2.5v-31.5c0-9.3-3.7-12.9-10.8-12.9c-6.3,0-12.5,4.4-18.1,8.2
		c0.2,1,0.3,2.2,0.3,3.4v32.9h-2.5v-32.8c-0.3-8.3-4-11.6-10.2-11.6c-4.3,0-9.5,1.1-18.4,8.2V734.1z"/>
	<path fill="#FFFFFF" d="M1835.7,687.3c13.8,0,21.2,9.3,21.2,24c0,14.7-7.4,24-21.2,24c-13.7,0-21.1-9.3-21.1-24
		C1814.7,696.5,1822,687.3,1835.7,687.3z M1835.8,732.8c10.3,0,18.4-6.4,18.4-21.6c0-15.2-8.1-21.6-18.4-21.6
		c-10.4,0-18.5,6.4-18.5,21.6C1817.3,726.5,1825.4,732.8,1835.8,732.8z"/>
	<path fill="#FFFFFF" d="M1875.2,726.6c0,6.2,3.5,6.4,6.9,6.4c1.7,0,4.2-0.5,5.9-1l0.3,2.3c-2.2,0.6-5.1,1.1-7.3,1.1
		c-3.8,0-8.3-1.1-8.3-8.7v-35.9h-6v-1.7l6-0.7v-13.5l2.4-0.4v13.9h15v2.4h-14.9V726.6z"/>
	<path fill="#FFFFFF" d="M1932.8,733c-4.5,1.5-9.1,2.3-12.8,2.3c-14.8,0-22.5-8.7-22.5-24.4c0-14.8,8.6-23.7,20-23.7
		c11.5,0,16.9,7.9,16.9,17.7c0,1.6-0.2,4.1-0.5,5.8h-33.7c0,0.6,0,0.6,0,1.4c0,15.9,9.9,20.8,19.8,20.8c4.5,0,8.7-0.9,12.8-2.6V733z
		 M1900.2,708.5h31.2c0.1-0.8,0.2-2.3,0.2-3.1c0-9.1-4.4-15.7-14.3-15.7C1909.1,689.7,1901.2,695.6,1900.2,708.5z"/>
	<path fill="#FFFFFF" d="M1973.6,734.1v-71l2.2-1.5h0.3v72.5H1973.6z"/>
	<path fill="#FFFFFF" d="M2025.8,733c-4.5,1.5-9.1,2.3-12.8,2.3c-14.8,0-22.5-8.7-22.5-24.4c0-14.8,8.6-23.7,20-23.7
		c11.5,0,16.9,7.9,16.9,17.7c0,1.6-0.2,4.1-0.5,5.8h-33.7c0,0.6,0,0.6,0,1.4c0,15.9,9.9,20.8,19.8,20.8c4.5,0,8.7-0.9,12.8-2.6V733z
		 M1993.3,708.5h31.2c0.1-0.8,0.2-2.3,0.2-3.1c0-9.1-4.4-15.7-14.3-15.7C2002.1,689.7,1994.2,695.6,1993.3,708.5z"/>
	<path fill="#FFFFFF" d="M2050.3,720.2c-2,1.8-4.5,5.5-4.5,8.8c0,2.5,1.2,4.8,6.4,4.8h13.6c8.2,0,13.7,4.2,13.7,12
		c0,6.8-4.4,14.7-21.8,14.7c-13.6,0-18.4-3.8-18.4-11.4c0-3.3,2.1-8.9,8.1-13.9c-2-0.5-4.1-2.7-4.1-5.9c0-1.7,0.5-5.6,5.3-10
		c-5.6-2.6-8.6-8.2-8.6-14.9c0-9.7,6.6-17,17.3-17c2.6,0,5,0.5,7.9,1.6h15.8v2.2h-13.1c5.3,4.8,6,10.9,6,13.2
		c0,11-7.4,16.8-17.2,16.8C2054.5,721.1,2053,720.9,2050.3,720.2z M2064.8,736h-11c-4.1,0-4.4-0.2-4.4-0.2
		c-5.2,4.7-7.4,9.8-7.4,13.2c0,6.4,4.8,9.2,15.7,9.2c12.3,0,19.2-4.5,19.2-12.1C2076.9,739.7,2072.6,736,2064.8,736z M2056.6,718.7
		c7.2,0,14.5-3.5,14.5-14.4c0-9.1-5.9-14.6-13.8-14.6c-7.6,0-14.6,4.6-14.6,14.6C2042.7,715.2,2049.6,718.7,2056.6,718.7z"/>
	<path fill="#FFFFFF" d="M2090.9,671.7V665h2.5v6.3L2090.9,671.7z M2093,688h0.3v46.2h-2.5v-45.7L2093,688z"/>
	<path fill="#FFFFFF" d="M2112.4,661.6h0.4v32c4.7-3.2,10.5-6.4,18-6.4c9.1,0,17.3,5.5,17.3,23c0,18.3-10.5,25.1-23,25.1
		c-5.4,0-10.6-1-14.8-2.3v-70L2112.4,661.6z M2130.3,689.7c-5.9,0-12.2,2.9-17.5,6.6v35c4.6,1.4,9,1.7,12.3,1.7
		c11.5,0,20.3-6.2,20.3-22.7C2145.4,696.6,2140.4,689.7,2130.3,689.7z"/>
	<path fill="#FFFFFF" d="M2162.5,671.7V665h2.5v6.3L2162.5,671.7z M2164.7,688h0.3v46.2h-2.5v-45.7L2164.7,688z"/>
	<path fill="#FFFFFF" d="M2182.1,734.1v-71l2.2-1.5h0.3v72.5H2182.1z"/>
	<path fill="#FFFFFF" d="M2201.6,671.7V665h2.5v6.3L2201.6,671.7z M2203.8,688h0.3v46.2h-2.5v-45.7L2203.8,688z"/>
	<path fill="#FFFFFF" d="M2225,726.6c0,6.2,3.5,6.4,6.9,6.4c1.7,0,4.2-0.5,5.9-1l0.3,2.3c-2.2,0.6-5.1,1.1-7.3,1.1
		c-3.8,0-8.3-1.1-8.3-8.7v-35.9h-6v-1.7l6-0.7v-13.5l2.4-0.4v13.9h15v2.4H2225V726.6z"/>
	<path fill="#FFFFFF" d="M2261.4,731.8L2261.4,731.8l14.4-43.5h2.8l-17.4,52.9c-2.7,8.4-6.3,13.2-13.1,18.5l-1.5-2.1
		c6.4-4.8,10-10.4,11.1-14.1l3-8.8h-0.7l-16.1-46.5h2.7L2261.4,731.8z"/>
	<path fill="#FFFFFF" d="M241.6,791.1v-6.8h2.5v6.3L241.6,791.1z M243.8,807.4h0.3v46.2h-2.5v-45.7L243.8,807.4z"/>
	<path fill="#FFFFFF" d="M263.2,807.4h0.4v7.2c7.6-5.2,13.7-7.9,19.4-7.9c7,0,13.1,4.3,13.1,14.4v32.4h-2.5V822
		c0-8.9-4.2-12.9-10.7-12.9c-4.5,0-10.9,2.3-19.3,8.2v36.3h-2.5v-45.7L263.2,807.4z"/>
	<path fill="#FFFFFF" d="M341.5,846c0,6.2,3.5,6.4,6.9,6.4c1.7,0,4.2-0.5,5.9-1l0.3,2.3c-2.2,0.6-5.1,1.1-7.3,1.1
		c-3.8,0-8.3-1.1-8.3-8.7v-35.9h-6v-1.7l6-0.7v-13.5l2.4-0.4v13.9h15v2.4h-14.9V846z"/>
	<path fill="#FFFFFF" d="M377.9,851.2L377.9,851.2l14.4-43.5h2.8l-17.4,52.9c-2.7,8.4-6.3,13.2-13.1,18.5l-1.5-2.1
		c6.4-4.8,10-10.4,11.1-14.1l3-8.8h-0.7l-16.1-46.5h2.7L377.9,851.2z"/>
	<path fill="#FFFFFF" d="M406.8,879.6h-0.4v-71.7l2.2-0.5h0.3v7.7c5.7-5,11.3-8.4,18.6-8.4c10.2,0,17.6,6.2,17.6,23
		c0,15.8-7.5,25.1-21.2,25.1c-4.6,0-10.6-1.5-15-3v27.6L406.8,879.6z M442.4,829.7c0-13.5-4.9-20.6-15.1-20.6
		c-6.7,0-13.1,4.3-18.4,9.2v31c6.3,2,10.6,3.1,14.9,3.1C437.6,852.3,442.4,841.7,442.4,829.7z"/>
	<path fill="#FFFFFF" d="M492.3,852.4c-4.5,1.5-9.1,2.3-12.8,2.3c-14.8,0-22.5-8.7-22.5-24.4c0-14.8,8.6-23.7,20-23.7
		c11.5,0,16.9,7.9,16.9,17.7c0,1.6-0.2,4.1-0.5,5.8h-33.7c0,0.6,0,0.6,0,1.4c0,15.9,9.9,20.8,19.8,20.8c4.5,0,8.7-0.9,12.8-2.6
		V852.4z M459.7,827.9H491c0.1-0.8,0.2-2.3,0.2-3.1c0-9.1-4.4-15.7-14.3-15.7C468.6,809.1,460.7,815,459.7,827.9z"/>
	<path fill="#FFFFFF" d="M509.5,799.6c-0.4-13.6,8.2-19.2,16.9-19.2c4,0,6,0.5,7.9,0.9l-0.4,2.5c-2.3-0.6-4.5-1-7.5-1
		c-7.1,0-14.4,4.3-14.4,16v9h16.4v2.3H512v43.5h-2.5v-43.5h-5.6v-1.7l5.6-0.6V799.6z"/>
	<path fill="#FFFFFF" d="M548.5,829.5l15.6-2.2v-4.7c0-10.3-5.8-13.5-12.7-13.5c-4.1,0-8.8,1.1-12.7,2.5l-0.3-2.5
		c3.4-1.2,9.5-2.4,13.2-2.4c8.1,0,15,3.9,15,15.9v30.9l-2.1,0.4h-0.4v-6.1H564c-5.4,4-10.1,6.6-16.3,6.6c-6.3,0-12.2-4.2-12.2-12.1
		C535.5,839,536.1,831.1,548.5,829.5z M548.4,852.1c4.9,0,10-2.5,15.7-6.9v-15.6l-14.9,2.1c-9.5,1.3-11,5.9-11,10.5
		C538.1,847.6,541.8,852.1,548.4,852.1z"/>
	<path fill="#FFFFFF" d="M615.5,853c-3.6,1-8.5,1.7-12.9,1.7c-15.2,0-22-8.9-22-24.7c0-15.5,8.8-23.4,22.8-23.4
		c3.7,0,7.4,0.5,10.7,1.3l-0.4,2.6c-2.9-0.8-7-1.5-10.6-1.5c-10.4,0-19.6,5.6-19.6,21c0,17.9,8.6,22.3,19.3,22.3
		c4.2,0,8.7-0.6,12.2-1.8L615.5,853z"/>
	<path fill="#FFFFFF" d="M659.5,852.4c-4.5,1.5-9.1,2.3-12.8,2.3c-14.8,0-22.5-8.7-22.5-24.4c0-14.8,8.6-23.7,20-23.7
		c11.5,0,16.9,7.9,16.9,17.7c0,1.6-0.2,4.1-0.5,5.8h-33.7c0,0.6,0,0.6,0,1.4c0,15.9,9.9,20.8,19.8,20.8c4.5,0,8.7-0.9,12.8-2.6
		V852.4z M627,827.9h31.2c0.1-0.8,0.2-2.3,0.2-3.1c0-9.1-4.4-15.7-14.3-15.7C635.8,809.1,628,815,627,827.9z"/>
	<path fill="#FFFFFF" d="M698.1,807.9l-0.4,2.5c-2.7-0.6-6.2-1.3-9.5-1.3c-6,0-12.9,1.3-12.9,9c0,12.4,25.4,9.8,25.4,23.4
		c0,9.8-8.3,13.3-17.9,13.3c-3.3,0-7-0.6-10.1-1.1l0.3-2.6c0,0,5.2,1.3,10.8,1.3c7.9,0,14.2-3.4,14.2-10.2
		c0-12.6-25.4-9.1-25.4-23.9c0-8,6.2-11.5,15.6-11.5C692.2,806.7,695.4,807.3,698.1,807.9z"/>
	<path fill="#FFFFFF" d="M714.6,847.5h2.6v6.1h-2.6V847.5z"/>
	<path fill="#FFFFFF" d="M781,851.1v2.4h-26v-2.4h11.3v-61.9H755v-2.4h26v2.4h-11.9v61.9H781z"/>
	<path fill="#FFFFFF" d="M796.4,846c0,6.2,3.5,6.4,6.9,6.4c1.7,0,4.2-0.5,5.9-1l0.3,2.3c-2.2,0.6-5.1,1.1-7.3,1.1
		c-3.8,0-8.3-1.1-8.3-8.7v-35.9h-6v-1.7l6-0.7v-13.5l2.4-0.4v13.9h15v2.4h-14.9V846z"/>
	<path fill="#FFFFFF" d="M821.6,786.9h2.6c0.1,0.8,0.1,2.4,0.1,3.7c0,4.3-1.3,7.5-3.8,11.8l-2-1c1.7-3.1,3.1-5.6,3.1-9.4V786.9z"/>
	<path fill="#FFFFFF" d="M859,807.9l-0.4,2.5c-2.7-0.6-6.2-1.3-9.5-1.3c-6,0-12.9,1.3-12.9,9c0,12.4,25.4,9.8,25.4,23.4
		c0,9.8-8.3,13.3-17.9,13.3c-3.3,0-7-0.6-10.1-1.1l0.3-2.6c0,0,5.2,1.3,10.8,1.3c7.9,0,14.2-3.4,14.2-10.2
		c0-12.6-25.4-9.1-25.4-23.9c0-8,6.2-11.5,15.6-11.5C853.1,806.7,856.3,807.3,859,807.9z"/>
	<path fill="#FFFFFF" d="M932.4,853.8H932v-7c-7.6,5.2-13.7,7.9-19.4,7.9c-7,0-13.1-4.4-13.1-14.5V808l2.2-0.4h0.3v31.7
		c0,8.9,4.2,13,10.7,13c4.5,0,10.9-2.3,19.3-8.2V808l2.3-0.4h0.2v46L932.4,853.8z"/>
	<path fill="#FFFFFF" d="M953.4,807.4h0.4v7.2c7.6-5.2,13.7-7.9,19.4-7.9c7,0,13.1,4.3,13.1,14.4v32.4h-2.5V822
		c0-8.9-4.2-12.9-10.7-12.9c-4.5,0-10.9,2.3-19.3,8.2v36.3h-2.5v-45.7L953.4,807.4z"/>
	<path fill="#FFFFFF" d="M1004.4,799.6c-0.4-13.6,8.2-19.2,16.9-19.2c4,0,6,0.5,7.9,0.9l-0.4,2.5c-2.3-0.6-4.5-1-7.5-1
		c-7.1,0-14.4,4.3-14.4,16v9h16.4v2.3h-16.4v43.5h-2.5v-43.5h-5.6v-1.7l5.6-0.6V799.6z"/>
	<path fill="#FFFFFF" d="M1043.4,829.5l15.6-2.2v-4.7c0-10.3-5.8-13.5-12.7-13.5c-4.1,0-8.8,1.1-12.7,2.5l-0.3-2.5
		c3.4-1.2,9.5-2.4,13.2-2.4c8.1,0,15,3.9,15,15.9v30.9l-2.1,0.4h-0.4v-6.1h-0.1c-5.4,4-10.1,6.6-16.3,6.6c-6.3,0-12.2-4.2-12.2-12.1
		C1030.4,839,1031.1,831.1,1043.4,829.5z M1043.3,852.1c4.9,0,10-2.5,15.7-6.9v-15.6l-14.9,2.1c-9.5,1.3-11,5.9-11,10.5
		C1033,847.6,1036.7,852.1,1043.3,852.1z"/>
	<path fill="#FFFFFF" d="M1078,791.1v-6.8h2.5v6.3L1078,791.1z M1080.2,807.4h0.3v46.2h-2.5v-45.7L1080.2,807.4z"/>
	<path fill="#FFFFFF" d="M1100,816.3c5.3-7.8,11.1-9.2,16.8-9v2.6c-5.6-0.3-11,1.2-16.8,10.1v33.5h-2.5v-45.7l2.1-0.5h0.4V816.3z"/>
	<path fill="#FFFFFF" d="M1155.9,846c0,6.2,3.5,6.4,6.9,6.4c1.7,0,4.2-0.5,5.9-1l0.3,2.3c-2.2,0.6-5.1,1.1-7.3,1.1
		c-3.8,0-8.3-1.1-8.3-8.7v-35.9h-6v-1.7l6-0.7v-13.5l2.4-0.4v13.9h15v2.4h-14.9V846z"/>
	<path fill="#FFFFFF" d="M1199.3,806.7c13.8,0,21.2,9.3,21.2,24s-7.4,24-21.2,24c-13.7,0-21.1-9.3-21.1-24
		S1185.6,806.7,1199.3,806.7z M1199.4,852.2c10.3,0,18.4-6.4,18.4-21.6c0-15.2-8.1-21.6-18.4-21.6c-10.4,0-18.5,6.4-18.5,21.6
		C1180.9,845.9,1189,852.2,1199.4,852.2z"/>
	<path fill="#FFFFFF" d="M1262.2,816.3c5.3-7.8,11.1-9.2,16.8-9v2.6c-5.6-0.3-11,1.2-16.8,10.1v33.5h-2.5v-45.7l2.1-0.5h0.4V816.3z"
		/>
	<path fill="#FFFFFF" d="M1321.3,852.4c-4.5,1.5-9.1,2.3-12.8,2.3c-14.8,0-22.5-8.7-22.5-24.4c0-14.8,8.6-23.7,20-23.7
		c11.5,0,16.9,7.9,16.9,17.7c0,1.6-0.2,4.1-0.5,5.8h-33.7c0,0.6,0,0.6,0,1.4c0,15.9,9.9,20.8,19.8,20.8c4.5,0,8.7-0.9,12.8-2.6
		V852.4z M1288.8,827.9h31.2c0.1-0.8,0.2-2.3,0.2-3.1c0-9.1-4.4-15.7-14.3-15.7C1297.6,809.1,1289.8,815,1288.8,827.9z"/>
	<path fill="#FFFFFF" d="M1346.8,829.5l15.6-2.2v-4.7c0-10.3-5.8-13.5-12.7-13.5c-4.1,0-8.8,1.1-12.7,2.5l-0.3-2.5
		c3.4-1.2,9.5-2.4,13.2-2.4c8.1,0,15,3.9,15,15.9v30.9l-2.1,0.4h-0.4v-6.1h-0.1c-5.4,4-10.1,6.6-16.3,6.6c-6.3,0-12.2-4.2-12.2-12.1
		C1333.7,839,1334.4,831.1,1346.8,829.5z M1346.7,852.1c4.9,0,10-2.5,15.7-6.9v-15.6l-14.9,2.1c-9.5,1.3-11,5.9-11,10.5
		C1336.4,847.6,1340.1,852.1,1346.7,852.1z"/>
	<path fill="#FFFFFF" d="M1416.4,781h0.3v72.4l-2.1,0.3h-0.4v-6.6c-5.3,4.5-11.7,7.6-18,7.6c-10.2,0-17.3-6.6-17.3-23.4
		c0-15.8,8-24.7,21.7-24.7c4.6,0,9.7,1.2,13.6,2.4v-26.6L1416.4,781z M1381.6,831.3c0,13.5,4.6,21,14.8,21c6.7,0,12.9-3.7,17.8-8.2
		v-32.7c-6-1.7-9.8-2.4-13.5-2.4C1386.9,809.1,1381.6,819.3,1381.6,831.3z"/>
	<path fill="#FFFFFF" d="M1466.4,852.4c-4.5,1.5-9.1,2.3-12.8,2.3c-14.8,0-22.5-8.7-22.5-24.4c0-14.8,8.6-23.7,20-23.7
		c11.5,0,16.9,7.9,16.9,17.7c0,1.6-0.2,4.1-0.5,5.8h-33.7c0,0.6,0,0.6,0,1.4c0,15.9,9.9,20.8,19.8,20.8c4.5,0,8.7-0.9,12.8-2.6
		V852.4z M1433.8,827.9h31.2c0.1-0.8,0.2-2.3,0.2-3.1c0-9.1-4.4-15.7-14.3-15.7C1442.7,809.1,1434.8,815,1433.8,827.9z"/>
	<path fill="#FFFFFF" d="M1484.7,816.3c5.3-7.8,11.1-9.2,16.8-9v2.6c-5.6-0.3-11,1.2-16.8,10.1v33.5h-2.5v-45.7l2.1-0.5h0.4V816.3z"
		/>
	<path fill="#FFFFFF" d="M1534.6,807.9l-0.4,2.5c-2.7-0.6-6.2-1.3-9.5-1.3c-6,0-12.9,1.3-12.9,9c0,12.4,25.4,9.8,25.4,23.4
		c0,9.8-8.3,13.3-17.9,13.3c-3.3,0-7-0.6-10.1-1.1l0.3-2.6c0,0,5.2,1.3,10.8,1.3c7.9,0,14.2-3.4,14.2-10.2
		c0-12.6-25.4-9.1-25.4-23.9c0-8,6.2-11.5,15.6-11.5C1528.6,806.7,1531.9,807.3,1534.6,807.9z"/>
	<path fill="#FFFFFF" d="M1585.1,829.5l15.6-2.2v-4.7c0-10.3-5.8-13.5-12.7-13.5c-4.1,0-8.8,1.1-12.7,2.5l-0.3-2.5
		c3.4-1.2,9.5-2.4,13.2-2.4c8.1,0,15,3.9,15,15.9v30.9l-2.1,0.4h-0.4v-6.1h-0.1c-5.4,4-10.1,6.6-16.3,6.6c-6.3,0-12.2-4.2-12.2-12.1
		C1572,839,1572.7,831.1,1585.1,829.5z M1585,852.1c4.9,0,10-2.5,15.7-6.9v-15.6l-14.9,2.1c-9.5,1.3-11,5.9-11,10.5
		C1574.7,847.6,1578.4,852.1,1585,852.1z"/>
	<path fill="#FFFFFF" d="M1621.8,807.4h0.4v7.2c7.6-5.2,13.7-7.9,19.4-7.9c7,0,13.1,4.3,13.1,14.4v32.4h-2.5V822
		c0-8.9-4.2-12.9-10.7-12.9c-4.5,0-10.9,2.3-19.3,8.2v36.3h-2.5v-45.7L1621.8,807.4z"/>
	<path fill="#FFFFFF" d="M1706.4,781h0.3v72.4l-2.1,0.3h-0.4v-6.6c-5.3,4.5-11.7,7.6-18,7.6c-10.2,0-17.3-6.6-17.3-23.4
		c0-15.8,8-24.7,21.7-24.7c4.6,0,9.7,1.2,13.6,2.4v-26.6L1706.4,781z M1671.5,831.3c0,13.5,4.6,21,14.8,21c6.7,0,12.9-3.7,17.8-8.2
		v-32.7c-6-1.7-9.8-2.4-13.5-2.4C1676.8,809.1,1671.5,819.3,1671.5,831.3z"/>
	<path fill="#FFFFFF" d="M1752.3,846c0,6.2,3.5,6.4,6.9,6.4c1.7,0,4.2-0.5,5.9-1l0.3,2.3c-2.2,0.6-5.1,1.1-7.3,1.1
		c-3.8,0-8.3-1.1-8.3-8.7v-35.9h-6v-1.7l6-0.7v-13.5l2.4-0.4v13.9h15v2.4h-14.9V846z"/>
	<path fill="#FFFFFF" d="M1779.8,853.5h-2.5v-71.8l2.1-0.7c0.1,0,0.3,0,0.4,0v33.5c7.6-5.2,13.7-7.9,19.4-7.9
		c7,0,13.1,4.3,13.1,14.4v32.4h-2.5V822c0-8.9-4.2-12.9-10.7-12.9c-4.5,0-10.9,2.3-19.3,8.2V853.5z"/>
	<path fill="#FFFFFF" d="M1861.7,852.4c-4.5,1.5-9.1,2.3-12.8,2.3c-14.8,0-22.5-8.7-22.5-24.4c0-14.8,8.6-23.7,20-23.7
		c11.5,0,16.9,7.9,16.9,17.7c0,1.6-0.2,4.1-0.5,5.8H1829c0,0.6,0,0.6,0,1.4c0,15.9,9.9,20.8,19.8,20.8c4.5,0,8.7-0.9,12.8-2.6V852.4
		z M1829.1,827.9h31.2c0.1-0.8,0.2-2.3,0.2-3.1c0-9.1-4.4-15.7-14.3-15.7C1838,809.1,1830.1,815,1829.1,827.9z"/>
	<path fill="#FFFFFF" d="M1904.9,816.3c5.3-7.8,11.1-9.2,16.8-9v2.6c-5.6-0.3-11,1.2-16.8,10.1v33.5h-2.5v-45.7l2.1-0.5h0.4V816.3z"
		/>
	<path fill="#FFFFFF" d="M1932,791.1v-6.8h2.5v6.3L1932,791.1z M1934.2,807.4h0.3v46.2h-2.5v-45.7L1934.2,807.4z"/>
	<path fill="#FFFFFF" d="M1983.9,853c-3.6,1-8.5,1.7-12.9,1.7c-15.2,0-22-8.9-22-24.7c0-15.5,8.8-23.4,22.8-23.4
		c3.7,0,7.4,0.5,10.7,1.3l-0.4,2.6c-2.9-0.8-7-1.5-10.6-1.5c-10.4,0-19.6,5.6-19.6,21c0,17.9,8.6,22.3,19.3,22.3
		c4.2,0,8.7-0.6,12.2-1.8L1983.9,853z"/>
	<path fill="#FFFFFF" d="M1998.9,853.5h-2.5v-71.8l2.1-0.7c0.1,0,0.3,0,0.4,0v33.5c7.6-5.2,13.7-7.9,19.4-7.9
		c7,0,13.1,4.3,13.1,14.4v32.4h-2.5V822c0-8.9-4.2-12.9-10.7-12.9c-4.5,0-10.9,2.3-19.3,8.2V853.5z"/>
	<path fill="#FFFFFF" d="M2075.5,853.5h-2.5v-71.8l2.1-0.7c0.1,0,0.3,0,0.4,0v33.5c7.6-5.2,13.7-7.9,19.4-7.9
		c7,0,13.1,4.3,13.1,14.4v32.4h-2.5V822c0-8.9-4.2-12.9-10.7-12.9c-4.5,0-10.9,2.3-19.3,8.2V853.5z"/>
	<path fill="#FFFFFF" d="M2124.6,791.1v-6.8h2.5v6.3L2124.6,791.1z M2126.8,807.4h0.3v46.2h-2.5v-45.7L2126.8,807.4z"/>
	<path fill="#FFFFFF" d="M2166.9,807.9l-0.4,2.5c-2.7-0.6-6.2-1.3-9.5-1.3c-6,0-12.9,1.3-12.9,9c0,12.4,25.4,9.8,25.4,23.4
		c0,9.8-8.3,13.3-17.9,13.3c-3.3,0-7-0.6-10.1-1.1l0.3-2.6c0,0,5.2,1.3,10.8,1.3c7.9,0,14.2-3.4,14.2-10.2
		c0-12.6-25.4-9.1-25.4-23.9c0-8,6.2-11.5,15.6-11.5C2161,806.7,2164.2,807.3,2166.9,807.9z"/>
	<path fill="#FFFFFF" d="M2186.7,846c0,6.2,3.5,6.4,6.9,6.4c1.7,0,4.2-0.5,5.9-1l0.3,2.3c-2.2,0.6-5.1,1.1-7.3,1.1
		c-3.8,0-8.3-1.1-8.3-8.7v-35.9h-6v-1.7l6-0.7v-13.5l2.4-0.4v13.9h15v2.4h-14.9V846z"/>
	<path fill="#FFFFFF" d="M2230.1,806.7c13.8,0,21.2,9.3,21.2,24s-7.4,24-21.2,24c-13.7,0-21.1-9.3-21.1-24
		S2216.4,806.7,2230.1,806.7z M2230.2,852.2c10.3,0,18.4-6.4,18.4-21.6c0-15.2-8.1-21.6-18.4-21.6c-10.4,0-18.5,6.4-18.5,21.6
		C2211.7,845.9,2219.8,852.2,2230.2,852.2z"/>
	<path fill="#FFFFFF" d="M2268.1,816.3c5.3-7.8,11.1-9.2,16.8-9v2.6c-5.6-0.3-11,1.2-16.8,10.1v33.5h-2.5v-45.7l2.1-0.5h0.4V816.3z"
		/>
	<path fill="#FFFFFF" d="M2306.8,851.2L2306.8,851.2l14.4-43.5h2.8l-17.4,52.9c-2.7,8.4-6.3,13.2-13.1,18.5l-1.5-2.1
		c6.4-4.8,10-10.4,11.1-14.1l3-8.8h-0.7l-16.1-46.5h2.7L2306.8,851.2z"/>
	<path fill="#FFFFFF" d="M268.8,926.1c13.8,0,21.2,9.3,21.2,24c0,14.7-7.4,24-21.2,24c-13.7,0-21.1-9.3-21.1-24
		C247.8,935.3,255.1,926.1,268.8,926.1z M268.9,971.6c10.3,0,18.4-6.4,18.4-21.6s-8.1-21.6-18.4-21.6c-10.4,0-18.5,6.4-18.5,21.6
		S258.5,971.6,268.9,971.6z"/>
	<path fill="#FFFFFF" d="M305.8,919c-0.4-13.6,8.2-19.2,16.9-19.2c4,0,6,0.5,7.9,0.9l-0.4,2.5c-2.3-0.6-4.5-1-7.5-1
		c-7.1,0-14.4,4.3-14.4,16v9h16.4v2.3h-16.4v43.5h-2.5v-43.5h-5.6v-1.7l5.6-0.6V919z"/>
	<path fill="#FFFFFF" d="M363.9,965.4c0,6.2,3.5,6.4,6.9,6.4c1.7,0,4.2-0.5,5.9-1l0.3,2.3c-2.2,0.6-5.1,1.1-7.3,1.1
		c-3.8,0-8.3-1.1-8.3-8.7v-35.9h-6v-1.7l6-0.7v-13.5l2.4-0.4v13.9h15v2.4h-14.9V965.4z"/>
	<path fill="#FFFFFF" d="M391.3,972.9h-2.5v-71.8l2.1-0.7c0.1,0,0.3,0,0.4,0v33.5c7.6-5.2,13.7-7.9,19.4-7.9c7,0,13.1,4.3,13.1,14.4
		v32.4h-2.5v-31.5c0-8.9-4.2-12.9-10.7-12.9c-4.5,0-10.9,2.3-19.3,8.2V972.9z"/>
	<path fill="#FFFFFF" d="M473.2,971.8c-4.5,1.5-9.1,2.3-12.8,2.3c-14.8,0-22.5-8.7-22.5-24.4c0-14.8,8.6-23.7,20-23.7
		c11.5,0,16.9,7.9,16.9,17.7c0,1.6-0.2,4.1-0.5,5.8h-33.7c0,0.6,0,0.6,0,1.4c0,15.9,9.9,20.8,19.8,20.8c4.5,0,8.7-0.9,12.8-2.6
		V971.8z M440.7,947.3h31.2c0.1-0.8,0.2-2.3,0.2-3.1c0-9.1-4.4-15.7-14.3-15.7C449.5,928.5,441.7,934.4,440.7,947.3z"/>
	<path fill="#FFFFFF" d="M515.5,972.9v-66.7h2.7v64.2h25.9l0.5,2.5H515.5z"/>
	<path fill="#FFFFFF" d="M563.2,948.9l15.6-2.2V942c0-10.3-5.8-13.5-12.7-13.5c-4.1,0-8.8,1.1-12.7,2.5l-0.3-2.5
		c3.4-1.2,9.5-2.4,13.2-2.4c8.1,0,15,3.9,15,15.9v30.9l-2.1,0.4h-0.4v-6.1h-0.1c-5.4,4-10.1,6.6-16.3,6.6c-6.3,0-12.2-4.2-12.2-12.1
		C550.1,958.4,550.8,950.5,563.2,948.9z M563.1,971.5c4.9,0,10-2.5,15.7-6.9v-15.6l-14.9,2.1c-9.5,1.3-11,5.9-11,10.5
		C552.8,967,556.5,971.5,563.1,971.5z"/>
	<path fill="#FFFFFF" d="M601.7,965.4c0,6.2,3.5,6.4,6.9,6.4c1.7,0,4.2-0.5,5.9-1l0.3,2.3c-2.2,0.6-5.1,1.1-7.3,1.1
		c-3.8,0-8.3-1.1-8.3-8.7v-35.9h-6v-1.7l6-0.7v-13.5l2.4-0.4v13.9h15v2.4h-14.9V965.4z"/>
	<path fill="#FFFFFF" d="M626.5,910.5v-6.8h2.5v6.3L626.5,910.5z M628.7,926.8h0.3v46.2h-2.5v-45.7L628.7,926.8z"/>
	<path fill="#FFFFFF" d="M648.1,926.8h0.4v7.2c7.6-5.2,13.7-7.9,19.4-7.9c7,0,13.1,4.3,13.1,14.4v32.4h-2.5v-31.5
		c0-8.9-4.2-12.9-10.7-12.9c-4.5,0-10.9,2.3-19.3,8.2v36.3H646v-45.7L648.1,926.8z"/>
	<path fill="#FFFFFF" d="M732.2,948.9l15.6-2.2V942c0-10.3-5.8-13.5-12.7-13.5c-4.1,0-8.8,1.1-12.7,2.5l-0.3-2.5
		c3.4-1.2,9.5-2.4,13.2-2.4c8.1,0,15,3.9,15,15.9v30.9l-2.1,0.4h-0.4v-6.1h-0.1c-5.4,4-10.1,6.6-16.3,6.6c-6.3,0-12.2-4.2-12.2-12.1
		C719.2,958.4,719.9,950.5,732.2,948.9z M732.1,971.5c4.9,0,10-2.5,15.7-6.9v-15.6l-14.9,2.1c-9.5,1.3-11,5.9-11,10.5
		C721.9,967,725.5,971.5,732.1,971.5z"/>
	<path fill="#FFFFFF" d="M766.9,972.9v-71l2.2-1.5h0.3v72.5H766.9z"/>
	<path fill="#FFFFFF" d="M786.8,999h-0.4v-71.7l2.2-0.5h0.3v7.7c5.7-5,11.3-8.4,18.6-8.4c10.2,0,17.6,6.2,17.6,23
		c0,15.8-7.5,25.1-21.2,25.1c-4.6,0-10.6-1.5-15-3v27.6L786.8,999z M822.5,949.1c0-13.5-4.9-20.6-15.1-20.6
		c-6.7,0-13.1,4.3-18.4,9.2v31c6.3,2,10.6,3.1,14.9,3.1C817.7,971.7,822.5,961.1,822.5,949.1z"/>
	<path fill="#FFFFFF" d="M842.2,972.9h-2.5v-71.8l2.1-0.7c0.1,0,0.3,0,0.4,0v33.5c7.6-5.2,13.7-7.9,19.4-7.9c7,0,13.1,4.3,13.1,14.4
		v32.4h-2.5v-31.5c0-8.9-4.2-12.9-10.7-12.9c-4.5,0-10.9,2.3-19.3,8.2V972.9z"/>
	<path fill="#FFFFFF" d="M901,948.9l15.6-2.2V942c0-10.3-5.8-13.5-12.7-13.5c-4.1,0-8.8,1.1-12.7,2.5l-0.3-2.5
		c3.4-1.2,9.5-2.4,13.2-2.4c8.1,0,15,3.9,15,15.9v30.9l-2.1,0.4h-0.4v-6.1h-0.1c-5.4,4-10.1,6.6-16.3,6.6c-6.3,0-12.2-4.2-12.2-12.1
		C887.9,958.4,888.6,950.5,901,948.9z M900.9,971.5c4.9,0,10-2.5,15.7-6.9v-15.6l-14.9,2.1c-9.5,1.3-11,5.9-11,10.5
		C890.6,967,894.3,971.5,900.9,971.5z"/>
	<path fill="#FFFFFF" d="M937.6,900.4h0.4v32c4.7-3.2,10.5-6.4,18-6.4c9.1,0,17.3,5.5,17.3,23c0,18.3-10.5,25.1-23,25.1
		c-5.4,0-10.6-1-14.8-2.3v-70L937.6,900.4z M955.5,928.5c-5.9,0-12.2,2.9-17.5,6.6v35c4.6,1.4,9,1.7,12.3,1.7
		c11.5,0,20.3-6.2,20.3-22.7C970.6,935.4,965.6,928.5,955.5,928.5z"/>
	<path fill="#FFFFFF" d="M1020.5,971.8c-4.5,1.5-9.1,2.3-12.8,2.3c-14.8,0-22.5-8.7-22.5-24.4c0-14.8,8.6-23.7,20-23.7
		c11.5,0,16.9,7.9,16.9,17.7c0,1.6-0.2,4.1-0.5,5.8h-33.7c0,0.6,0,0.6,0,1.4c0,15.9,9.9,20.8,19.8,20.8c4.5,0,8.7-0.9,12.8-2.6
		V971.8z M987.9,947.3h31.2c0.1-0.8,0.2-2.3,0.2-3.1c0-9.1-4.4-15.7-14.3-15.7C996.8,928.5,988.9,934.4,987.9,947.3z"/>
	<path fill="#FFFFFF" d="M1040.2,965.4c0,6.2,3.5,6.4,6.9,6.4c1.7,0,4.2-0.5,5.9-1l0.3,2.3c-2.2,0.6-5.1,1.1-7.3,1.1
		c-3.8,0-8.3-1.1-8.3-8.7v-35.9h-6v-1.7l6-0.7v-13.5l2.4-0.4v13.9h15v2.4h-14.9V965.4z"/>
	<path fill="#FFFFFF" d="M1100.6,973.8h-3l-12.4-46.7h2.8l11,43.3h0.3l12.2-43.3h3.4l12.2,43.3h0.3l11-43.3h2.8l-12.4,46.7h-3
		l-12.6-43.5L1100.6,973.8z"/>
	<path fill="#FFFFFF" d="M1156,972.9h-2.5v-71.8l2.1-0.7c0.1,0,0.3,0,0.4,0v33.5c7.6-5.2,13.7-7.9,19.4-7.9c7,0,13.1,4.3,13.1,14.4
		v32.4h-2.5v-31.5c0-8.9-4.2-12.9-10.7-12.9c-4.5,0-10.9,2.3-19.3,8.2V972.9z"/>
	<path fill="#FFFFFF" d="M1237.9,971.8c-4.5,1.5-9.1,2.3-12.8,2.3c-14.8,0-22.5-8.7-22.5-24.4c0-14.8,8.6-23.7,20-23.7
		c11.5,0,16.9,7.9,16.9,17.7c0,1.6-0.2,4.1-0.5,5.8h-33.7c0,0.6,0,0.6,0,1.4c0,15.9,9.9,20.8,19.8,20.8c4.5,0,8.7-0.9,12.8-2.6
		V971.8z M1205.3,947.3h31.2c0.1-0.8,0.2-2.3,0.2-3.1c0-9.1-4.4-15.7-14.3-15.7C1214.2,928.5,1206.3,934.4,1205.3,947.3z"/>
	<path fill="#FFFFFF" d="M1255.8,926.8h0.4v7.2c7.6-5.2,13.7-7.9,19.4-7.9c7,0,13.1,4.3,13.1,14.4v32.4h-2.5v-31.5
		c0-8.9-4.2-12.9-10.7-12.9c-4.5,0-10.9,2.3-19.3,8.2v36.3h-2.5v-45.7L1255.8,926.8z"/>
	<path fill="#FFFFFF" d="M1334.1,965.4c0,6.2,3.5,6.4,6.9,6.4c1.7,0,4.2-0.5,5.9-1l0.3,2.3c-2.2,0.6-5.1,1.1-7.3,1.1
		c-3.8,0-8.3-1.1-8.3-8.7v-35.9h-6v-1.7l6-0.7v-13.5l2.4-0.4v13.9h15v2.4h-14.9V965.4z"/>
	<path fill="#FFFFFF" d="M1361.5,972.9h-2.5v-71.8l2.1-0.7c0.1,0,0.3,0,0.4,0v33.5c7.6-5.2,13.7-7.9,19.4-7.9
		c7,0,13.1,4.3,13.1,14.4v32.4h-2.5v-31.5c0-8.9-4.2-12.9-10.7-12.9c-4.5,0-10.9,2.3-19.3,8.2V972.9z"/>
	<path fill="#FFFFFF" d="M1443.4,971.8c-4.5,1.5-9.1,2.3-12.8,2.3c-14.8,0-22.5-8.7-22.5-24.4c0-14.8,8.6-23.7,20-23.7
		c11.5,0,16.9,7.9,16.9,17.7c0,1.6-0.2,4.1-0.5,5.8h-33.7c0,0.6,0,0.6,0,1.4c0,15.9,9.9,20.8,19.8,20.8c4.5,0,8.7-0.9,12.8-2.6
		V971.8z M1410.9,947.3h31.2c0.1-0.8,0.2-2.3,0.2-3.1c0-9.1-4.4-15.7-14.3-15.7C1419.7,928.5,1411.9,934.4,1410.9,947.3z"/>
	<path fill="#FFFFFF" d="M1516.7,973.2h-0.4v-7c-7.6,5.2-13.7,7.9-19.4,7.9c-7,0-13.1-4.4-13.1-14.5v-32.2l2.2-0.4h0.3v31.7
		c0,8.9,4.2,13,10.7,13c4.5,0,10.9-2.3,19.3-8.2v-36.2l2.3-0.4h0.2v46L1516.7,973.2z"/>
	<path fill="#FFFFFF" d="M1536.1,999h-0.4v-71.7l2.2-0.5h0.3v7.7c5.7-5,11.3-8.4,18.6-8.4c10.2,0,17.6,6.2,17.6,23
		c0,15.8-7.5,25.1-21.2,25.1c-4.6,0-10.6-1.5-15-3v27.6L1536.1,999z M1571.7,949.1c0-13.5-4.9-20.6-15.1-20.6
		c-6.7,0-13.1,4.3-18.4,9.2v31c6.3,2,10.6,3.1,14.9,3.1C1566.9,971.7,1571.7,961.1,1571.7,949.1z"/>
	<path fill="#FFFFFF" d="M1589.2,999h-0.4v-71.7l2.2-0.5h0.3v7.7c5.7-5,11.3-8.4,18.6-8.4c10.2,0,17.6,6.2,17.6,23
		c0,15.8-7.5,25.1-21.2,25.1c-4.6,0-10.6-1.5-15-3v27.6L1589.2,999z M1624.8,949.1c0-13.5-4.9-20.6-15.1-20.6
		c-6.7,0-13.1,4.3-18.4,9.2v31c6.3,2,10.6,3.1,14.9,3.1C1620,971.7,1624.8,961.1,1624.8,949.1z"/>
	<path fill="#FFFFFF" d="M1674.7,971.8c-4.5,1.5-9.1,2.3-12.8,2.3c-14.8,0-22.5-8.7-22.5-24.4c0-14.8,8.6-23.7,20-23.7
		c11.5,0,16.9,7.9,16.9,17.7c0,1.6-0.2,4.1-0.5,5.8H1642c0,0.6,0,0.6,0,1.4c0,15.9,9.9,20.8,19.8,20.8c4.5,0,8.7-0.9,12.8-2.6V971.8
		z M1642.1,947.3h31.2c0.1-0.8,0.2-2.3,0.2-3.1c0-9.1-4.4-15.7-14.3-15.7C1651,928.5,1643.1,934.4,1642.1,947.3z"/>
	<path fill="#FFFFFF" d="M1693,935.7c5.3-7.8,11.1-9.2,16.8-9v2.6c-5.6-0.3-11,1.2-16.8,10v33.5h-2.5v-45.7l2.1-0.5h0.4V935.7z"/>
	<path fill="#FFFFFF" d="M1751.7,972.4c-3.6,1-8.5,1.7-12.9,1.7c-15.2,0-22-8.9-22-24.7c0-15.5,8.8-23.4,22.8-23.4
		c3.7,0,7.4,0.5,10.7,1.3l-0.4,2.6c-2.9-0.8-7-1.5-10.6-1.5c-10.4,0-19.6,5.6-19.6,21c0,17.9,8.6,22.3,19.3,22.3
		c4.2,0,8.7-0.6,12.2-1.8L1751.7,972.4z"/>
	<path fill="#FFFFFF" d="M1773.8,948.9l15.6-2.2V942c0-10.3-5.8-13.5-12.7-13.5c-4.1,0-8.8,1.1-12.7,2.5l-0.3-2.5
		c3.4-1.2,9.5-2.4,13.2-2.4c8.1,0,15,3.9,15,15.9v30.9l-2.1,0.4h-0.4v-6.1h-0.1c-5.4,4-10.1,6.6-16.3,6.6c-6.3,0-12.2-4.2-12.2-12.1
		C1760.7,958.4,1761.4,950.5,1773.8,948.9z M1773.7,971.5c4.9,0,10-2.5,15.7-6.9v-15.6l-14.9,2.1c-9.5,1.3-11,5.9-11,10.5
		C1763.4,967,1767.1,971.5,1773.7,971.5z"/>
	<path fill="#FFFFFF" d="M1831.2,927.3l-0.4,2.5c-2.7-0.6-6.2-1.3-9.5-1.3c-6,0-12.9,1.3-12.9,9c0,12.4,25.4,9.9,25.4,23.4
		c0,9.8-8.3,13.3-17.9,13.3c-3.3,0-7-0.6-10.1-1.1l0.3-2.6c0,0,5.2,1.3,10.8,1.3c7.9,0,14.2-3.4,14.2-10.2
		c0-12.6-25.4-9.1-25.4-23.9c0-8,6.2-11.5,15.6-11.5C1825.2,926.1,1828.5,926.7,1831.2,927.3z"/>
	<path fill="#FFFFFF" d="M1879.8,971.8c-4.5,1.5-9.1,2.3-12.8,2.3c-14.8,0-22.5-8.7-22.5-24.4c0-14.8,8.6-23.7,20-23.7
		c11.5,0,16.9,7.9,16.9,17.7c0,1.6-0.2,4.1-0.5,5.8h-33.7c0,0.6,0,0.6,0,1.4c0,15.9,9.9,20.8,19.8,20.8c4.5,0,8.7-0.9,12.8-2.6
		V971.8z M1847.3,947.3h31.2c0.1-0.8,0.2-2.3,0.2-3.1c0-9.1-4.4-15.7-14.3-15.7C1856.1,928.5,1848.3,934.4,1847.3,947.3z"/>
	<path fill="#FFFFFF" d="M1921,911.1h-2.6c-0.1-0.8-0.1-2.4-0.1-3.7c0-4.3,1.3-7.5,3.8-11.8l2,1c-1.7,3.1-3.1,5.6-3.1,9.4V911.1z
		 M1927.2,911.1h-2.6c-0.1-0.8-0.1-2.4-0.1-3.7c0-4.3,1.3-7.5,3.8-11.8l2,1c-1.7,3.1-3.1,5.6-3.1,9.4V911.1z"/>
	<path fill="#FFFFFF" d="M1963.6,970.5v2.4h-26v-2.4h11.3v-61.9h-11.3v-2.4h26v2.4h-11.9v61.9H1963.6z"/>
	<path fill="#FFFFFF" d="M1976.3,906.3h2.6c0.1,0.8,0.1,2.4,0.1,3.7c0,4.3-1.3,7.5-3.8,11.8l-2-1c1.7-3.1,3.1-5.6,3.1-9.4V906.3z
		 M1982.5,906.3h2.6c0.1,0.8,0.1,2.4,0.1,3.7c0,4.3-1.3,7.5-3.8,11.8l-2-1c1.7-3.1,3.1-5.6,3.1-9.4V906.3z"/>
	<path fill="#FFFFFF" d="M2034.1,948.9l15.6-2.2V942c0-10.3-5.8-13.5-12.7-13.5c-4.1,0-8.8,1.1-12.7,2.5l-0.3-2.5
		c3.4-1.2,9.5-2.4,13.2-2.4c8.1,0,15,3.9,15,15.9v30.9l-2.1,0.4h-0.4v-6.1h-0.1c-5.4,4-10.1,6.6-16.3,6.6c-6.3,0-12.2-4.2-12.2-12.1
		C2021.1,958.4,2021.8,950.5,2034.1,948.9z M2034,971.5c4.9,0,10-2.5,15.7-6.9v-15.6l-14.9,2.1c-9.5,1.3-11,5.9-11,10.5
		C2023.8,967,2027.5,971.5,2034,971.5z"/>
	<path fill="#FFFFFF" d="M2070.9,926.8h0.4v7.2c7.6-5.2,13.7-7.9,19.4-7.9c7,0,13.1,4.3,13.1,14.4v32.4h-2.5v-31.5
		c0-8.9-4.2-12.9-10.7-12.9c-4.5,0-10.9,2.3-19.3,8.2v36.3h-2.5v-45.7L2070.9,926.8z"/>
	<path fill="#FFFFFF" d="M2155.4,900.4h0.3v72.4l-2.1,0.3h-0.4v-6.6c-5.3,4.5-11.7,7.6-18,7.6c-10.2,0-17.3-6.6-17.3-23.4
		c0-15.8,8-24.7,21.7-24.7c4.6,0,9.7,1.2,13.6,2.4v-26.6L2155.4,900.4z M2120.6,950.7c0,13.5,4.6,21,14.8,21
		c6.7,0,12.9-3.7,17.8-8.2v-32.7c-6-1.7-9.8-2.4-13.5-2.4C2125.9,928.5,2120.6,938.7,2120.6,950.7z"/>
	<path fill="#FFFFFF" d="M2201.4,965.4c0,6.2,3.5,6.4,6.9,6.4c1.7,0,4.2-0.5,5.9-1l0.3,2.3c-2.2,0.6-5.1,1.1-7.3,1.1
		c-3.8,0-8.3-1.1-8.3-8.7v-35.9h-6v-1.7l6-0.7v-13.5l2.4-0.4v13.9h15v2.4h-14.9V965.4z"/>
	<path fill="#FFFFFF" d="M2228.9,972.9h-2.5v-71.8l2.1-0.7c0.1,0,0.3,0,0.4,0v33.5c7.6-5.2,13.7-7.9,19.4-7.9
		c7,0,13.1,4.3,13.1,14.4v32.4h-2.5v-31.5c0-8.9-4.2-12.9-10.7-12.9c-4.5,0-10.9,2.3-19.3,8.2V972.9z"/>
	<path fill="#FFFFFF" d="M2310.8,971.8c-4.5,1.5-9.1,2.3-12.8,2.3c-14.8,0-22.5-8.7-22.5-24.4c0-14.8,8.6-23.7,20-23.7
		c11.5,0,16.9,7.9,16.9,17.7c0,1.6-0.2,4.1-0.5,5.8h-33.7c0,0.6,0,0.6,0,1.4c0,15.9,9.9,20.8,19.8,20.8c4.5,0,8.7-0.9,12.8-2.6
		V971.8z M2278.2,947.3h31.2c0.1-0.8,0.2-2.3,0.2-3.1c0-9.1-4.4-15.7-14.3-15.7C2287.1,928.5,2279.2,934.4,2278.2,947.3z"/>
	<path fill="#FFFFFF" d="M494.3,1092.3v-71l2.2-1.5h0.3v72.5H494.3z"/>
	<path fill="#FFFFFF" d="M532.3,1045.5c13.8,0,21.2,9.3,21.2,24c0,14.7-7.4,24-21.2,24c-13.7,0-21.1-9.3-21.1-24
		C511.2,1054.7,518.5,1045.5,532.3,1045.5z M532.4,1091c10.3,0,18.4-6.4,18.4-21.6c0-15.2-8.1-21.6-18.4-21.6
		c-10.4,0-18.5,6.4-18.5,21.6C513.9,1084.7,521.9,1091,532.4,1091z"/>
	<path fill="#FFFFFF" d="M578.4,1093.2h-3l-12.4-46.7h2.8l11,43.3h0.3l12.2-43.3h3.4l12.2,43.3h0.3l11-43.3h2.8l-12.4,46.7h-3
		l-12.6-43.5L578.4,1093.2z"/>
	<path fill="#FFFFFF" d="M664,1091.2c-4.5,1.5-9.1,2.3-12.8,2.3c-14.8,0-22.5-8.7-22.5-24.4c0-14.8,8.6-23.7,20-23.7
		c11.5,0,16.9,7.9,16.9,17.7c0,1.6-0.2,4.1-0.5,5.8h-33.7c0,0.6,0,0.6,0,1.4c0,15.9,9.9,20.8,19.8,20.8c4.5,0,8.7-0.9,12.8-2.6
		V1091.2z M631.5,1066.7h31.2c0.1-0.8,0.2-2.3,0.2-3.1c0-9.1-4.4-15.7-14.3-15.7C640.3,1047.9,632.5,1053.8,631.5,1066.7z"/>
	<path fill="#FFFFFF" d="M682.3,1055.1c5.3-7.8,11.1-9.2,16.8-9v2.6c-5.6-0.3-11,1.2-16.8,10v33.5h-2.5v-45.7l2.1-0.5h0.4V1055.1z"
		/>
	<path fill="#FFFFFF" d="M741,1091.8c-3.6,1-8.5,1.7-12.9,1.7c-15.2,0-22-8.9-22-24.7c0-15.5,8.8-23.4,22.8-23.4
		c3.7,0,7.4,0.5,10.7,1.3l-0.4,2.6c-2.9-0.8-7-1.5-10.6-1.5c-10.4,0-19.6,5.6-19.6,21c0,17.9,8.6,22.3,19.3,22.3
		c4.2,0,8.7-0.6,12.2-1.8L741,1091.8z"/>
	<path fill="#FFFFFF" d="M763.1,1068.3l15.6-2.2v-4.7c0-10.3-5.8-13.5-12.7-13.5c-4.1,0-8.8,1.1-12.7,2.5l-0.3-2.5
		c3.4-1.2,9.5-2.4,13.2-2.4c8.1,0,15,3.9,15,15.9v30.9l-2.1,0.4h-0.4v-6.1h-0.1c-5.4,4-10.1,6.6-16.3,6.6c-6.3,0-12.2-4.2-12.2-12.1
		C750.1,1077.8,750.8,1069.9,763.1,1068.3z M763,1090.9c4.9,0,10-2.5,15.7-6.9v-15.6l-14.9,2.1c-9.5,1.3-11,5.9-11,10.5
		C752.8,1086.4,756.4,1090.9,763,1090.9z"/>
	<path fill="#FFFFFF" d="M820.5,1046.7l-0.4,2.5c-2.7-0.6-6.2-1.3-9.5-1.3c-6,0-12.9,1.3-12.9,9c0,12.4,25.4,9.9,25.4,23.4
		c0,9.8-8.3,13.3-17.9,13.3c-3.3,0-7-0.6-10.1-1.1l0.3-2.6c0,0,5.2,1.3,10.8,1.3c7.9,0,14.2-3.4,14.2-10.2
		c0-12.6-25.4-9.1-25.4-23.9c0-8,6.2-11.5,15.6-11.5C814.5,1045.5,817.8,1046.1,820.5,1046.7z"/>
	<path fill="#FFFFFF" d="M869.2,1091.2c-4.5,1.5-9.1,2.3-12.8,2.3c-14.8,0-22.5-8.7-22.5-24.4c0-14.8,8.6-23.7,20-23.7
		c11.5,0,16.9,7.9,16.9,17.7c0,1.6-0.2,4.1-0.5,5.8h-33.7c0,0.6,0,0.6,0,1.4c0,15.9,9.9,20.8,19.8,20.8c4.5,0,8.7-0.9,12.8-2.6
		V1091.2z M836.6,1066.7h31.2c0.1-0.8,0.2-2.3,0.2-3.1c0-9.1-4.4-15.7-14.3-15.7C845.5,1047.9,837.6,1053.8,836.6,1066.7z"/>
	<path fill="#FFFFFF" d="M910.4,1030.5h-2.6c-0.1-0.8-0.1-2.4-0.1-3.7c0-4.3,1.3-7.5,3.8-11.8l2,1c-1.7,3.1-3.1,5.6-3.1,9.4V1030.5z
		 M916.5,1030.5h-2.6c-0.1-0.8-0.1-2.4-0.1-3.7c0-4.3,1.3-7.5,3.8-11.8l2,1c-1.7,3.1-3.1,5.6-3.1,9.4V1030.5z"/>
	<path fill="#FFFFFF" d="M931.5,1092.3v-71l2.2-1.5h0.3v72.5H931.5z"/>
	<path fill="#FFFFFF" d="M951.3,1025.7h2.6c0.1,0.8,0.1,2.4,0.1,3.7c0,4.3-1.3,7.5-3.8,11.8l-2-1c1.7-3.1,3.1-5.6,3.1-9.4V1025.7z
		 M957.4,1025.7h2.6c0.1,0.8,0.1,2.4,0.1,3.7c0,4.3-1.3,7.5-3.8,11.8l-2-1c1.7-3.1,3.1-5.6,3.1-9.4V1025.7z"/>
	<path fill="#FFFFFF" d="M1009.1,1068.3l15.6-2.2v-4.7c0-10.3-5.8-13.5-12.7-13.5c-4.1,0-8.8,1.1-12.7,2.5l-0.3-2.5
		c3.4-1.2,9.5-2.4,13.2-2.4c8.1,0,15,3.9,15,15.9v30.9l-2.1,0.4h-0.4v-6.1h-0.1c-5.4,4-10.1,6.6-16.3,6.6c-6.3,0-12.2-4.2-12.2-12.1
		C996,1077.8,996.7,1069.9,1009.1,1068.3z M1009,1090.9c4.9,0,10-2.5,15.7-6.9v-15.6l-14.9,2.1c-9.5,1.3-11,5.9-11,10.5
		C998.7,1086.4,1002.4,1090.9,1009,1090.9z"/>
	<path fill="#FFFFFF" d="M1046.2,1055.1c5.3-7.8,11.1-9.2,16.8-9v2.6c-5.6-0.3-11,1.2-16.8,10v33.5h-2.5v-45.7l2.1-0.5h0.4V1055.1z"
		/>
	<path fill="#FFFFFF" d="M1105.3,1091.2c-4.5,1.5-9.1,2.3-12.8,2.3c-14.8,0-22.5-8.7-22.5-24.4c0-14.8,8.6-23.7,20-23.7
		c11.5,0,16.9,7.9,16.9,17.7c0,1.6-0.2,4.1-0.5,5.8h-33.7c0,0.6,0,0.6,0,1.4c0,15.9,9.9,20.8,19.8,20.8c4.5,0,8.7-0.9,12.8-2.6
		V1091.2z M1072.7,1066.7h31.2c0.1-0.8,0.2-2.3,0.2-3.1c0-9.1-4.4-15.7-14.3-15.7C1081.6,1047.9,1073.7,1053.8,1072.7,1066.7z"/>
	<path fill="#FFFFFF" d="M1123.2,1046.2h0.4v7.2c7.6-5.2,13.7-7.9,19.4-7.9c7,0,13.1,4.3,13.1,14.4v32.4h-2.5v-31.5
		c0-8.9-4.2-12.9-10.7-12.9c-4.5,0-10.9,2.3-19.3,8.2v36.3h-2.5v-45.7L1123.2,1046.2z"/>
	<path fill="#FFFFFF" d="M1170.8,1025.7h2.6c0.1,0.8,0.1,2.4,0.1,3.7c0,4.3-1.3,7.5-3.8,11.8l-2-1c1.7-3.1,3.1-5.6,3.1-9.4V1025.7z"
		/>
	<path fill="#FFFFFF" d="M1191.7,1084.8c0,6.2,3.5,6.4,6.9,6.4c1.7,0,4.2-0.5,5.9-1l0.3,2.3c-2.2,0.6-5.1,1.1-7.3,1.1
		c-3.8,0-8.3-1.1-8.3-8.7V1049h-6v-1.7l6-0.7V1033l2.4-0.4v13.9h15v2.4h-14.9V1084.8z"/>
	<path fill="#FFFFFF" d="M1253.2,1090h0.4l14.7-43.5h2.8l-15.9,46.3h-3.6l-15.9-46.3h2.8L1253.2,1090z"/>
	<path fill="#FFFFFF" d="M1282.3,1029.9v-6.8h2.5v6.3L1282.3,1029.9z M1284.5,1046.2h0.3v46.2h-2.5v-45.7L1284.5,1046.2z"/>
	<path fill="#FFFFFF" d="M1324.6,1046.7l-0.4,2.5c-2.7-0.6-6.2-1.3-9.5-1.3c-6,0-12.9,1.3-12.9,9c0,12.4,25.4,9.9,25.4,23.4
		c0,9.8-8.3,13.3-17.9,13.3c-3.3,0-7-0.6-10.2-1.1l0.3-2.6c0,0,5.2,1.3,10.8,1.3c7.9,0,14.2-3.4,14.2-10.2
		c0-12.6-25.4-9.1-25.4-23.9c0-8,6.2-11.5,15.6-11.5C1318.6,1045.5,1321.9,1046.1,1324.6,1046.7z"/>
	<path fill="#FFFFFF" d="M1373,1092.6h-0.4v-7c-7.6,5.2-13.7,7.9-19.4,7.9c-7,0-13.1-4.4-13.1-14.5v-32.2l2.2-0.4h0.3v31.7
		c0,8.9,4.2,13,10.7,13c4.5,0,10.9-2.3,19.3-8.2v-36.2l2.3-0.4h0.2v46L1373,1092.6z"/>
	<path fill="#FFFFFF" d="M1401.7,1068.3l15.6-2.2v-4.7c0-10.3-5.8-13.5-12.7-13.5c-4.1,0-8.8,1.1-12.7,2.5l-0.3-2.5
		c3.4-1.2,9.5-2.4,13.2-2.4c8.1,0,15,3.9,15,15.9v30.9l-2.1,0.4h-0.4v-6.1h-0.1c-5.4,4-10.1,6.6-16.3,6.6c-6.3,0-12.2-4.2-12.2-12.1
		C1388.7,1077.8,1389.3,1069.9,1401.7,1068.3z M1401.6,1090.9c4.9,0,10-2.5,15.7-6.9v-15.6l-14.9,2.1c-9.5,1.3-11,5.9-11,10.5
		C1391.3,1086.4,1395,1090.9,1401.6,1090.9z"/>
	<path fill="#FFFFFF" d="M1436.4,1092.3v-71l2.2-1.5h0.3v72.5H1436.4z"/>
	<path fill="#FFFFFF" d="M1456,1092.3v-71l2.2-1.5h0.3v72.5H1456z"/>
	<path fill="#FFFFFF" d="M1487.1,1090L1487.1,1090l14.4-43.5h2.8l-17.4,52.9c-2.7,8.4-6.3,13.2-13.1,18.5l-1.5-2.1
		c6.4-4.8,9.9-10.4,11.1-14.1l3-8.8h-0.7l-16.1-46.5h2.7L1487.1,1090z"/>
	<path fill="#FFFFFF" d="M1575.4,1019.8h0.3v72.4l-2.1,0.3h-0.4v-6.6c-5.3,4.5-11.7,7.6-18,7.6c-10.2,0-17.3-6.6-17.3-23.4
		c0-15.8,8-24.7,21.7-24.7c4.6,0,9.7,1.2,13.6,2.4v-26.6L1575.4,1019.8z M1540.6,1070.1c0,13.5,4.6,21,14.8,21
		c6.7,0,12.9-3.7,17.8-8.2v-32.7c-6-1.7-9.8-2.4-13.5-2.4C1545.9,1047.9,1540.6,1058.1,1540.6,1070.1z"/>
	<path fill="#FFFFFF" d="M1592.6,1029.9v-6.8h2.5v6.3L1592.6,1029.9z M1594.8,1046.2h0.3v46.2h-2.5v-45.7L1594.8,1046.2z"/>
	<path fill="#FFFFFF" d="M1634.9,1046.7l-0.4,2.5c-2.7-0.6-6.2-1.3-9.5-1.3c-6,0-12.9,1.3-12.9,9c0,12.4,25.4,9.9,25.4,23.4
		c0,9.8-8.3,13.3-17.9,13.3c-3.3,0-7-0.6-10.1-1.1l0.3-2.6c0,0,5.2,1.3,10.8,1.3c7.9,0,14.2-3.4,14.2-10.2
		c0-12.6-25.4-9.1-25.4-23.9c0-8,6.2-11.5,15.6-11.5C1628.9,1045.5,1632.2,1046.1,1634.9,1046.7z"/>
	<path fill="#FFFFFF" d="M1654.7,1084.8c0,6.2,3.5,6.4,6.9,6.4c1.7,0,4.2-0.5,5.9-1l0.3,2.3c-2.2,0.6-5.1,1.1-7.3,1.1
		c-3.8,0-8.3-1.1-8.3-8.7V1049h-6v-1.7l6-0.7V1033l2.4-0.4v13.9h15v2.4h-14.9V1084.8z"/>
	<path fill="#FFFFFF" d="M1679.6,1029.9v-6.8h2.5v6.3L1679.6,1029.9z M1681.8,1046.2h0.3v46.2h-2.5v-45.7L1681.8,1046.2z"/>
	<path fill="#FFFFFF" d="M1701.2,1046.2h0.4v7.2c7.6-5.2,13.7-7.9,19.4-7.9c7,0,13.1,4.3,13.1,14.4v32.4h-2.5v-31.5
		c0-8.9-4.2-12.9-10.7-12.9c-4.5,0-10.9,2.3-19.3,8.2v36.3h-2.5v-45.7L1701.2,1046.2z"/>
	<path fill="#FFFFFF" d="M1759.4,1078.4c-2,1.8-4.5,5.5-4.5,8.8c0,2.5,1.2,4.8,6.4,4.8h13.6c8.2,0,13.7,4.2,13.7,12
		c0,6.8-4.4,14.7-21.8,14.7c-13.6,0-18.4-3.8-18.4-11.4c0-3.3,2.1-8.9,8.1-13.9c-2-0.5-4.1-2.7-4.1-5.9c0-1.7,0.5-5.6,5.3-10
		c-5.6-2.6-8.6-8.2-8.6-14.9c0-9.7,6.6-17,17.3-17c2.6,0,5,0.5,7.9,1.6h15.8v2.2H1777c5.3,4.8,6,10.9,6,13.2
		c0,11-7.4,16.8-17.2,16.8C1763.7,1079.3,1762.1,1079.1,1759.4,1078.4z M1773.9,1094.2h-11c-4.1,0-4.4-0.2-4.4-0.2
		c-5.2,4.7-7.4,9.8-7.4,13.2c0,6.4,4.8,9.2,15.7,9.2c12.3,0,19.2-4.5,19.2-12.1C1786.1,1097.9,1781.7,1094.2,1773.9,1094.2z
		 M1765.8,1076.9c7.2,0,14.5-3.5,14.5-14.4c0-9.1-5.9-14.6-13.8-14.6c-7.6,0-14.6,4.6-14.6,14.6
		C1751.8,1073.4,1758.7,1076.9,1765.8,1076.9z"/>
	<path fill="#FFFFFF" d="M1832.5,1092.6h-0.4v-7c-7.6,5.2-13.7,7.9-19.4,7.9c-7,0-13.1-4.4-13.1-14.5v-32.2l2.2-0.4h0.3v31.7
		c0,8.9,4.2,13,10.7,13c4.5,0,10.9-2.3,19.3-8.2v-36.2l2.3-0.4h0.2v46L1832.5,1092.6z"/>
	<path fill="#FFFFFF" d="M1851.5,1029.9v-6.8h2.5v6.3L1851.5,1029.9z M1853.7,1046.2h0.3v46.2h-2.5v-45.7L1853.7,1046.2z"/>
	<path fill="#FFFFFF" d="M1893.8,1046.7l-0.4,2.5c-2.7-0.6-6.2-1.3-9.5-1.3c-6,0-12.9,1.3-12.9,9c0,12.4,25.4,9.9,25.4,23.4
		c0,9.8-8.3,13.3-17.9,13.3c-3.3,0-7-0.6-10.1-1.1l0.3-2.6c0,0,5.2,1.3,10.8,1.3c7.9,0,14.2-3.4,14.2-10.2
		c0-12.6-25.4-9.1-25.4-23.9c0-8,6.2-11.5,15.6-11.5C1887.8,1045.5,1891.1,1046.1,1893.8,1046.7z"/>
	<path fill="#FFFFFF" d="M1912.3,1092.3h-2.5v-71.8l2.1-0.7c0.1,0,0.3,0,0.4,0v33.5c7.6-5.2,13.7-7.9,19.4-7.9
		c7,0,13.1,4.3,13.1,14.4v32.4h-2.5v-31.5c0-8.9-4.2-12.9-10.7-12.9c-4.5,0-10.9,2.3-19.3,8.2V1092.3z"/>
	<path fill="#FFFFFF" d="M1994.2,1091.2c-4.5,1.5-9.1,2.3-12.8,2.3c-14.8,0-22.5-8.7-22.5-24.4c0-14.8,8.6-23.7,20-23.7
		c11.5,0,16.9,7.9,16.9,17.7c0,1.6-0.2,4.1-0.5,5.8h-33.7c0,0.6,0,0.6,0,1.4c0,15.9,9.9,20.8,19.8,20.8c4.5,0,8.7-0.9,12.8-2.6
		V1091.2z M1961.7,1066.7h31.2c0.1-0.8,0.2-2.3,0.2-3.1c0-9.1-4.4-15.7-14.3-15.7C1970.5,1047.9,1962.7,1053.8,1961.7,1066.7z"/>
	<path fill="#FFFFFF" d="M2045,1019.8h0.3v72.4l-2.1,0.3h-0.4v-6.6c-5.3,4.5-11.7,7.6-18,7.6c-10.2,0-17.3-6.6-17.3-23.4
		c0-15.8,8-24.7,21.7-24.7c4.6,0,9.7,1.2,13.6,2.4v-26.6L2045,1019.8z M2010.2,1070.1c0,13.5,4.6,21,14.8,21
		c6.7,0,12.9-3.7,17.8-8.2v-32.7c-6-1.7-9.8-2.4-13.5-2.4C2015.5,1047.9,2010.2,1058.1,2010.2,1070.1z"/>
	<path fill="#FFFFFF" d="M2062.8,1086.3h2.6v6.1h-2.6V1086.3z"/>
</g>
<g>
	<path fill="#FFFFFF" d="M1011.3,1333.2h-1.4l11.1-32.2h1.8l11.3,32.2h-1.4l-2.5-6.8h-16.5L1011.3,1333.2z M1013.9,1325.3h15.8
		l-7.9-22.8h-0.1L1013.9,1325.3z"/>
	<path fill="#FFFFFF" d="M1040.1,1310.9h0.2v3.5c3.6-2.5,6.6-3.8,9.4-3.8c3.4,0,6.3,2.1,6.3,7v15.6h-1.2V1318c0-4.3-2-6.2-5.2-6.2
		c-2.2,0-5.3,1.1-9.3,3.9v17.5h-1.2v-22L1040.1,1310.9z"/>
	<path fill="#FFFFFF" d="M1080.9,1298.2h0.1v34.9l-1,0.1h-0.2v-3.2c-2.5,2.2-5.7,3.6-8.7,3.6c-4.9,0-8.4-3.2-8.4-11.3
		c0-7.6,3.8-11.9,10.5-11.9c2.2,0,4.7,0.6,6.6,1.2v-12.8L1080.9,1298.2z M1064.1,1322.5c0,6.5,2.2,10.1,7.2,10.1
		c3.2,0,6.2-1.8,8.6-3.9v-15.8c-2.9-0.8-4.7-1.2-6.5-1.2C1066.6,1311.7,1064.1,1316.7,1064.1,1322.5z"/>
	<path fill="#FFFFFF" d="M1101.2,1303.1v-3.3h1.2v3L1101.2,1303.1z M1102.2,1310.9h0.1v22.3h-1.2v-22L1102.2,1310.9z"/>
	<path fill="#FFFFFF" d="M1112.5,1329.5c0,3,1.7,3.1,3.3,3.1c0.8,0,2-0.2,2.8-0.5l0.1,1.1c-1.1,0.3-2.4,0.5-3.5,0.5
		c-1.8,0-4-0.5-4-4.2v-17.3h-2.9v-0.8l2.9-0.3v-6.5l1.2-0.2v6.7h7.2v1.2h-7.2V1329.5z"/>
	<path fill="#FFFFFF" d="M1124.6,1301h1.2c0,0.4,0,1.2,0,1.8c0,2.1-0.6,3.6-1.8,5.7l-1-0.5c0.8-1.5,1.5-2.7,1.5-4.5V1301z"/>
	<path fill="#FFFFFF" d="M1142.7,1311.1l-0.2,1.2c-1.3-0.3-3-0.6-4.6-0.6c-2.9,0-6.2,0.6-6.2,4.3c0,6,12.2,4.8,12.2,11.3
		c0,4.7-4,6.4-8.6,6.4c-1.6,0-3.4-0.3-4.9-0.5l0.1-1.2c0,0,2.5,0.6,5.2,0.6c3.8,0,6.9-1.6,6.9-4.9c0-6.1-12.2-4.4-12.2-11.5
		c0-3.8,3-5.6,7.5-5.6C1139.8,1310.6,1141.4,1310.9,1142.7,1311.1z"/>
	<path fill="#FFFFFF" d="M1171.3,1310.6c6.7,0,10.2,4.5,10.2,11.6s-3.6,11.6-10.2,11.6c-6.6,0-10.2-4.5-10.2-11.6
		S1164.6,1310.6,1171.3,1310.6z M1171.3,1332.6c5,0,8.9-3.1,8.9-10.4s-3.9-10.4-8.9-10.4c-5,0-8.9,3.1-8.9,10.4
		S1166.3,1332.6,1171.3,1332.6z"/>
	<path fill="#FFFFFF" d="M1189.4,1310.9h0.2v3.5c3.6-2.5,6.6-3.8,9.4-3.8c3.4,0,6.3,2.1,6.3,7v15.6h-1.2V1318c0-4.3-2-6.2-5.2-6.2
		c-2.2,0-5.3,1.1-9.3,3.9v17.5h-1.2v-22L1189.4,1310.9z"/>
	<path fill="#FFFFFF" d="M1229.1,1332.7c-2.2,0.7-4.4,1.1-6.2,1.1c-7.2,0-10.8-4.2-10.8-11.8c0-7.2,4.1-11.4,9.6-11.4
		c5.6,0,8.2,3.8,8.2,8.5c0,0.8-0.1,2-0.2,2.8h-16.3c0,0.3,0,0.3,0,0.7c0,7.7,4.8,10,9.6,10c2.2,0,4.2-0.4,6.2-1.2V1332.7z
		 M1213.4,1320.8h15.1c0-0.4,0.1-1.1,0.1-1.5c0-4.4-2.1-7.6-6.9-7.6C1217.7,1311.7,1213.9,1314.6,1213.4,1320.8z"/>
	<path fill="#FFFFFF" d="M1257.7,1310.6c6.7,0,10.2,4.5,10.2,11.6s-3.6,11.6-10.2,11.6c-6.6,0-10.2-4.5-10.2-11.6
		S1251,1310.6,1257.7,1310.6z M1257.7,1332.6c5,0,8.9-3.1,8.9-10.4s-3.9-10.4-8.9-10.4c-5,0-8.9,3.1-8.9,10.4
		S1252.7,1332.6,1257.7,1332.6z"/>
	<path fill="#FFFFFF" d="M1275.5,1307.2c-0.2-6.6,3.9-9.3,8.2-9.3c1.9,0,2.9,0.2,3.8,0.4l-0.2,1.2c-1.1-0.3-2.2-0.5-3.6-0.5
		c-3.4,0-7,2.1-7,7.7v4.3h7.9v1.1h-7.9v21h-1.2v-21h-2.7v-0.8l2.7-0.3V1307.2z"/>
	<path fill="#FFFFFF" d="M1302.8,1333.2h-1.2v-22l1-0.2h0.2v3.6c3.7-2.7,6.3-3.9,9-3.9c2.5,0,4.8,1.2,5.7,4c3.7-2.6,6.7-4,9.3-4
		c3.5,0,6,2.1,6,7v15.6h-1.2V1318c0-4.5-1.8-6.2-5.2-6.2c-3,0-6,2.1-8.7,3.9c0.1,0.5,0.1,1.1,0.1,1.6v15.9h-1.2v-15.8
		c-0.1-4-1.9-5.6-4.9-5.6c-2.1,0-4.6,0.5-8.9,3.9V1333.2z"/>
	<path fill="#FFFFFF" d="M1346.5,1332.1L1346.5,1332.1l7-21h1.3l-8.4,25.5c-1.3,4-3,6.4-6.3,8.9l-0.7-1c3.1-2.3,4.8-5,5.4-6.8
		l1.4-4.2h-0.3l-7.8-22.4h1.3L1346.5,1332.1z"/>
	<path fill="#FFFFFF" d="M1372.4,1345.8h-0.2v-34.6l1.1-0.2h0.1v3.7c2.7-2.4,5.5-4,9-4c4.9,0,8.5,3,8.5,11.1
		c0,7.6-3.6,12.1-10.2,12.1c-2.2,0-5.1-0.7-7.2-1.4v13.3L1372.4,1345.8z M1389.6,1321.7c0-6.5-2.4-9.9-7.3-9.9
		c-3.2,0-6.3,2.1-8.9,4.4v15c3,1,5.1,1.5,7.2,1.5C1387.3,1332.6,1389.6,1327.5,1389.6,1321.7z"/>
	<path fill="#FFFFFF" d="M1413.6,1332.7c-2.2,0.7-4.4,1.1-6.2,1.1c-7.2,0-10.8-4.2-10.8-11.8c0-7.2,4.1-11.4,9.6-11.4
		c5.6,0,8.2,3.8,8.2,8.5c0,0.8-0.1,2-0.2,2.8h-16.3c0,0.3,0,0.3,0,0.7c0,7.7,4.8,10,9.6,10c2.2,0,4.2-0.4,6.2-1.2V1332.7z
		 M1397.9,1320.8h15.1c0-0.4,0.1-1.1,0.1-1.5c0-4.4-2.1-7.6-6.9-7.6C1402.2,1311.7,1398.4,1314.6,1397.9,1320.8z"/>
	<path fill="#FFFFFF" d="M1423.1,1329.5c0,3,1.7,3.1,3.3,3.1c0.8,0,2-0.2,2.8-0.5l0.1,1.1c-1.1,0.3-2.4,0.5-3.5,0.5
		c-1.8,0-4-0.5-4-4.2v-17.3h-2.9v-0.8l2.9-0.3v-6.5l1.2-0.2v6.7h7.2v1.2h-7.2V1329.5z"/>
	<path fill="#FFFFFF" d="M1447.3,1345.8h-0.2v-34.6l1.1-0.2h0.1v3.7c2.7-2.4,5.5-4,9-4c4.9,0,8.5,3,8.5,11.1
		c0,7.6-3.6,12.1-10.2,12.1c-2.2,0-5.1-0.7-7.2-1.4v13.3L1447.3,1345.8z M1464.5,1321.7c0-6.5-2.4-9.9-7.3-9.9
		c-3.2,0-6.3,2.1-8.9,4.4v15c3,1,5.1,1.5,7.2,1.5C1462.2,1332.6,1464.5,1327.5,1464.5,1321.7z"/>
	<path fill="#FFFFFF" d="M1488.5,1332.7c-2.2,0.7-4.4,1.1-6.2,1.1c-7.2,0-10.8-4.2-10.8-11.8c0-7.2,4.1-11.4,9.6-11.4
		c5.6,0,8.2,3.8,8.2,8.5c0,0.8-0.1,2-0.2,2.8h-16.3c0,0.3,0,0.3,0,0.7c0,7.7,4.8,10,9.6,10c2.2,0,4.2-0.4,6.2-1.2V1332.7z
		 M1472.8,1320.8h15.1c0-0.4,0.1-1.1,0.1-1.5c0-4.4-2.1-7.6-6.9-7.6C1477.1,1311.7,1473.3,1314.6,1472.8,1320.8z"/>
	<path fill="#FFFFFF" d="M1512,1332.7c-2.2,0.7-4.4,1.1-6.2,1.1c-7.2,0-10.8-4.2-10.8-11.8c0-7.2,4.1-11.4,9.6-11.4
		c5.6,0,8.2,3.8,8.2,8.5c0,0.8-0.1,2-0.2,2.8h-16.3c0,0.3,0,0.3,0,0.7c0,7.7,4.8,10,9.6,10c2.2,0,4.2-0.4,6.2-1.2V1332.7z
		 M1496.3,1320.8h15.1c0-0.4,0.1-1.1,0.1-1.5c0-4.4-2.1-7.6-6.9-7.6C1500.5,1311.7,1496.7,1314.6,1496.3,1320.8z"/>
	<path fill="#FFFFFF" d="M1525.3,1332.1h0.2l7.1-21h1.3l-7.7,22.3h-1.7l-7.7-22.3h1.3L1525.3,1332.1z"/>
	<path fill="#FFFFFF" d="M1555.1,1332.7c-2.2,0.7-4.4,1.1-6.2,1.1c-7.2,0-10.8-4.2-10.8-11.8c0-7.2,4.1-11.4,9.6-11.4
		c5.6,0,8.2,3.8,8.2,8.5c0,0.8-0.1,2-0.2,2.8h-16.3c0,0.3,0,0.3,0,0.7c0,7.7,4.8,10,9.6,10c2.2,0,4.2-0.4,6.2-1.2V1332.7z
		 M1539.4,1320.8h15.1c0-0.4,0.1-1.1,0.1-1.5c0-4.4-2.1-7.6-6.9-7.6C1543.6,1311.7,1539.8,1314.6,1539.4,1320.8z"/>
	<path fill="#FFFFFF" d="M1573.7,1311.1l-0.2,1.2c-1.3-0.3-3-0.6-4.6-0.6c-2.9,0-6.2,0.6-6.2,4.3c0,6,12.2,4.8,12.2,11.3
		c0,4.7-4,6.4-8.6,6.4c-1.6,0-3.4-0.3-4.9-0.5l0.1-1.2c0,0,2.5,0.6,5.2,0.6c3.8,0,6.9-1.6,6.9-4.9c0-6.1-12.2-4.4-12.2-11.5
		c0-3.8,3-5.6,7.5-5.6C1570.8,1310.6,1572.4,1310.9,1573.7,1311.1z"/>
	<path fill="#FFFFFF" d="M1581.6,1330.2h1.2v2.9h-1.2V1330.2z"/>
</g>
</svg>
